<svg xmlns="http://www.w3.org/2000/svg" version="1.1" xmlns:xlink="http://www.w3.org/1999/xlink" width="142.74" height="207.7"><svg id="SvgjsSvg1003" data-name="Layer 2" xmlns="http://www.w3.org/2000/svg" viewBox="0 0 142.74 207.7">
  <defs>
    <style>
      .cls-1 {
        fill: #c00000;
        stroke-width: 0px;
      }
    </style>
  </defs>
  <g id="SvgjsG1002" data-name="Layer 1">
    <path class="cls-1" d="M64.49,117.01c-.83-32.46,48.89-32.23,48.18.09.43,31.85-48.93,31.85-48.18-.09Z"></path>
    <path class="cls-1" d="M114.35,158.76c-4-.99-8.17-2.59-12.86-4.64l.11-.77c46.82-12.55,35.48-76.76-12.37-75.7-29.87-2.13-54,29.24-39.79,56.39,5.36,10.78,15.27,18.79,27.19,20.97,8.87,6.35,17.39,10.91,25.58,13.68l-41.5,34.09c-9.39,10.14-25.02,3.77-28.15-11.46L.23,26.52C-1.06,11.29,3.33,5.5,6.48,3.04c16.14-12.58,57,17.75,60.93,20.72,36.78,27.75,64.63,70.26,74.68,101.53,1.54,4.8.33,12.24-3.46,15.7l-24.28,17.76Z"></path>
  </g>
</svg><style>@media (prefers-color-scheme: light) { :root { filter: none; } }
@media (prefers-color-scheme: dark) { :root { filter: none; } }
</style></svg>