<svg width="60" height="60" viewBox="0 0 60 60" fill="none" xmlns="http://www.w3.org/2000/svg">
<path d="M56.2527 30.5834C56.2527 28.4251 56.0739 26.8501 55.6872 25.2168H30.5384V34.9583H45.3002C45.0027 37.3793 43.3955 41.0251 39.824 43.475L39.774 43.8011L47.7255 49.8379L48.2764 49.8918C53.3359 45.3126 56.2527 38.575 56.2527 30.5834Z" fill="#4285F4"/>
<path d="M30.5367 56.2499C37.7687 56.2499 43.84 53.9165 48.2747 49.8916L39.8223 43.4747C37.5605 45.0205 34.5247 46.0997 30.5367 46.0997C23.4534 46.0997 17.4416 41.5206 15.2985 35.1914L14.9844 35.2175L6.71628 41.4885L6.60815 41.783C11.0129 50.3581 20.0605 56.2499 30.5367 56.2499Z" fill="#34A853"/>
<path d="M15.3002 35.1917C14.7347 33.5584 14.4075 31.8082 14.4075 30C14.4075 28.1915 14.7347 26.4416 15.2704 24.8083L15.2554 24.4604L6.88367 18.0889L6.60976 18.2165C4.79436 21.7749 3.75269 25.7708 3.75269 30C3.75269 34.2291 4.79436 38.2249 6.60976 41.7832L15.3002 35.1917Z" fill="#FBBC05"/>
<path d="M30.5368 13.8999C35.5665 13.8999 38.9593 16.0291 40.8939 17.8084L48.4534 10.575C43.8107 6.34584 37.7689 3.75 30.5368 3.75C20.0605 3.75 11.0129 9.64162 6.60815 18.2166L15.2688 24.8083C17.4417 18.4792 23.4535 13.8999 30.5368 13.8999Z" fill="#EB4335"/>
</svg>
