<svg width="106" height="106" viewBox="0 0 106 106" fill="none" xmlns="http://www.w3.org/2000/svg">
<path d="M83.3053 93.7949C83.3053 94.9861 82.9519 95.7836 82.2452 96.1874C81.5487 96.5912 80.6704 96.4903 79.6306 95.8947L72.2611 91.6446V100.084C72.2611 101.286 71.9178 102.083 71.2111 102.487C70.5045 102.891 69.6262 102.79 68.5864 102.184C67.5466 101.588 66.6684 100.68 65.9617 99.4583C65.255 98.2368 64.9016 97.0354 64.9016 95.8341V87.3945L57.5422 83.1444C56.5024 82.5387 55.6242 81.6301 54.9175 80.4086C54.2109 79.1971 53.8574 77.9857 53.8574 76.7945C53.8574 75.6032 54.2109 74.7956 54.9175 74.3918L55.1395 74.2808C55.8058 74.0183 56.6033 74.1495 57.5422 74.6947L64.9016 78.9448V70.495C64.9016 70.0509 64.9521 69.6672 65.053 69.324C65.2146 68.7587 65.5175 68.3549 65.9617 68.1025L66.1736 68.0015C66.4765 67.8804 66.7995 67.84 67.1428 67.8804C67.3245 67.8905 67.5062 67.941 67.698 68.0015H67.7081C67.9908 68.0924 68.2835 68.2236 68.5864 68.3952C69.6262 69.001 70.5045 69.9095 71.2111 71.1209C71.9178 72.3425 72.2611 73.5539 72.2611 74.7451V83.1949L72.6951 83.4472L79.6306 87.445C80.6704 88.0507 81.5487 88.9592 82.2452 90.1707C82.9519 91.3922 83.3053 92.5935 83.3053 93.7949Z" fill="white" fill-opacity="0.35" stroke="white" stroke-width="1.00952" stroke-linecap="round" stroke-linejoin="round"/>
<path d="M55.1396 74.2805C55.8059 74.018 56.6035 74.1493 57.5423 74.6944L64.9017 78.9445V70.4948C64.9017 70.0506 64.9522 69.667 65.0532 69.3237L55.1396 74.2805Z" fill="white" fill-opacity="0.35" stroke="white" stroke-width="1.00952" stroke-linecap="round" stroke-linejoin="round"/>
<path d="M92.31 91.1602C92.1485 91.7356 91.8456 92.1394 91.4014 92.3918L91.1894 92.4927L71.2109 102.487C71.9176 102.083 72.2608 101.286 72.2608 100.084V91.6447L79.6304 95.8948C80.6702 96.4904 81.5484 96.5914 82.2449 96.1876L89.6549 92.4826L92.31 91.1602Z" fill="white" fill-opacity="0.35" stroke="white" stroke-width="1.00952" stroke-linecap="round" stroke-linejoin="round"/>
<path d="M103.497 83.6996C103.497 84.8908 103.143 85.6884 102.437 86.0922L102.225 86.1931L92.3109 91.1499L89.6558 92.4825L82.2458 96.1874C82.9525 95.7836 83.3059 94.9861 83.3059 93.7948C83.3059 92.6036 82.9525 91.3922 82.2458 90.1707C81.5492 88.9592 80.6711 88.0507 79.6312 87.445L72.6958 83.4472L72.2617 83.1948L72.6151 83.0131L84.6082 77.0166L92.4522 73.0996L99.8217 77.3497C100.862 77.9554 101.74 78.864 102.437 80.0754C103.143 81.2969 103.497 82.4983 103.497 83.6996Z" fill="white" fill-opacity="0.35" stroke="white" stroke-width="1.00952" stroke-linecap="round" stroke-linejoin="round"/>
<path d="M67.0923 67.5367L66.1737 68.0011L65.9617 68.102C65.5175 68.3544 65.2146 68.7582 65.0531 69.3235L55.1396 74.2803L54.9175 74.3913C54.2108 74.7951 53.8574 75.5927 53.8574 76.794C53.8574 77.9953 54.2108 79.1967 54.9175 80.4081C55.6241 81.6296 56.5024 82.5382 57.5422 83.1439L64.9017 87.394V89.938L51.2832 96.7422C52.0201 96.3889 52.434 95.6822 52.5249 94.602C52.6158 93.5319 52.3331 92.3811 51.6567 91.1393C49.88 87.9391 48.5676 84.7692 47.7398 81.6498C46.912 78.5304 46.498 75.5018 46.498 72.5439C46.498 72.1906 46.5081 71.8473 46.5182 71.5142C46.71 64.8412 48.8906 60.3993 53.0297 58.2087C57.2495 55.9675 61.863 56.23 66.8803 58.986C66.7491 60.0662 66.6885 61.2271 66.6885 62.4487C66.6885 64.1245 66.8198 65.8104 67.0923 67.5367Z" fill="white" fill-opacity="0.35" stroke="white" stroke-width="1.00952" stroke-linecap="round" stroke-linejoin="round"/>
<path d="M72.6858 60.4701C72.5848 60.5609 72.4839 60.6417 72.3728 60.7123L71.969 60.9142C71.1513 61.2171 70.1216 60.9445 68.8597 60.1066L67.3858 59.2586C67.2142 59.1577 67.0526 59.0668 66.881 58.9861C61.8637 56.2301 57.2502 55.9676 53.0303 58.2087C48.8913 60.3994 46.7107 64.8413 46.5189 71.5142C46.5088 71.8474 46.4987 72.1906 46.4987 72.544C46.4987 75.5019 46.9126 78.5304 47.7404 81.6499C48.5682 84.7693 49.8806 87.9392 51.6574 91.1394C52.3338 92.3811 52.6164 93.532 52.5256 94.6021C52.4347 95.6822 52.0208 96.3889 51.2839 96.7422L44.0152 99.9323C43.3388 100.316 42.5717 100.417 41.7136 100.245C40.8555 100.064 39.9974 99.7203 39.1393 99.2257C38.2812 98.731 37.423 98.0647 36.5649 97.2167C35.7068 96.3687 34.9397 95.3592 34.2633 94.1982C31.5679 89.8169 28.3778 84.7794 24.693 79.0655C21.0083 73.3516 17.5153 67.4762 14.2041 61.4392C10.8928 55.4123 8.08633 49.4763 5.78461 43.6514C3.4829 37.8163 2.33203 32.5769 2.33203 27.9331C2.33203 21.3106 4.27031 16.9192 8.12669 14.7487L8.95451 14.3348C12.6696 12.6792 17.2023 13.396 22.5528 16.4851C22.5629 16.4851 22.5629 16.4952 22.573 16.4952C25.7631 18.3325 28.8018 20.8462 31.689 24.0262C34.5662 27.1962 37.0496 30.8002 39.1393 34.8181C39.6844 34.4042 40.2498 34.0407 40.8454 33.748C42.5414 32.8899 44.4595 32.5163 46.5896 32.6274C49.4768 32.7788 52.5155 33.7782 55.7056 35.6156C59.5721 37.8466 62.9842 40.8651 65.9623 44.6609C67.4968 46.6093 68.8597 48.6082 70.061 50.6676C71.1917 52.5958 72.1709 54.5643 72.9987 56.5834C73.6751 58.3097 73.5742 59.612 72.6858 60.4701Z" fill="white" fill-opacity="0.35" stroke="white" stroke-width="1.00952" stroke-linecap="round" stroke-linejoin="round"/>
<path d="M92.8756 50.3754C92.704 50.5369 92.5322 50.658 92.3404 50.7388L92.29 50.7691L72.3722 60.7129C72.4832 60.6422 72.5842 60.5615 72.6851 60.4706C73.5735 59.6125 73.6743 58.3102 72.998 56.5839C72.1702 54.5649 71.191 52.5963 70.0603 50.6681C68.859 48.6087 67.4962 46.6098 65.9617 44.6615C62.9836 40.8656 59.5713 37.8472 55.7048 35.6161C52.5147 33.7788 49.4762 32.7794 46.5889 32.6279C44.4588 32.5169 42.5407 32.8904 40.8447 33.7485L59.2382 24.5416L60.7626 23.7845L61.0958 23.6129C62.7817 22.7851 64.6796 22.4216 66.7794 22.5327C69.6666 22.6841 72.7052 23.6835 75.8953 25.5209C79.7618 27.7519 83.1741 30.7704 86.1522 34.5662C89.1303 38.3519 91.4723 42.3295 93.1884 46.4887C93.8648 48.215 93.764 49.5173 92.8756 50.3754Z" fill="white" fill-opacity="0.35" stroke="white" stroke-width="1.00952" stroke-linecap="round" stroke-linejoin="round"/>
<path d="M59.2385 24.5419L40.845 33.7487C40.2494 34.0415 39.6841 34.4049 39.1389 34.8188C37.0492 30.8009 34.5657 27.1969 31.6885 24.027C28.8013 20.847 25.7626 18.3333 22.5725 16.4959C22.5625 16.4959 22.5626 16.4859 22.5525 16.4859C17.202 13.3967 12.6691 12.6799 8.9541 14.3356L28.3167 4.65421C32.1832 2.48373 36.9986 3.06926 42.763 6.40069C45.9531 8.23802 48.9918 10.7518 51.879 13.9318C54.7158 17.0512 57.1689 20.5946 59.2385 24.5419Z" fill="white" fill-opacity="0.35" stroke="white" stroke-width="1.00952" stroke-linecap="round" stroke-linejoin="round"/>
<path d="M92.4517 64.6498V73.0995L84.6077 77.0164L72.6146 83.013L72.2613 83.1947V74.745C72.2613 73.5538 71.918 72.3423 71.2114 71.1208C70.5047 69.9094 69.6264 69.0008 68.5866 68.3951C68.2837 68.2235 67.991 68.0922 67.7083 68.0014H67.6982C67.5064 67.9408 67.3247 67.8903 67.143 67.8802C66.7997 67.8399 66.4767 67.8802 66.1738 68.0014L67.0925 67.537L86.1523 58.0071C86.859 57.6033 87.7373 57.7042 88.7771 58.2999C89.8169 58.9056 90.6952 59.8141 91.4018 61.0256C92.1085 62.2471 92.4517 63.4585 92.4517 64.6498Z" fill="white" fill-opacity="0.35" stroke="white" stroke-width="1.00952" stroke-linecap="round" stroke-linejoin="round"/>
<path d="M71.9691 60.9141L71.9287 60.9342L71.9691 60.9141Z" fill="white" fill-opacity="0.35"/>
<path d="M71.9691 60.9141L71.9287 60.9342" stroke="white" stroke-width="1.00952" stroke-linecap="round" stroke-linejoin="round"/>
</svg>
