<?xml version="1.0" encoding="UTF-8"?>
<svg id="Layer_2" data-name="Layer 2" xmlns="http://www.w3.org/2000/svg" viewBox="0 0 430.68 207.7">
  <defs>
    <style>
      .cls-1 {
        fill: #c00000;
      }

      .cls-1, .cls-2, .cls-3 {
        stroke-width: 0px;
      }

      .cls-2 {
        fill: #959595;
      }

      .cls-4 {
        opacity: .9;
      }

      .cls-3 {
        fill: #d9d9d9;
      }
    </style>
  </defs>
  <g id="Layer_1-2" data-name="Layer 1">
    <path class="cls-1" d="M64.49,117.01c-.83-32.46,48.89-32.23,48.18.09.43,31.85-48.93,31.85-48.18-.09Z"/>
    <path class="cls-1" d="M114.35,158.76c-4-.99-8.17-2.59-12.86-4.64l.11-.77c46.82-12.55,35.48-76.76-12.37-75.7-29.87-2.13-54,29.24-39.79,56.39,5.36,10.78,15.27,18.79,27.19,20.97,8.87,6.35,17.39,10.91,25.58,13.68l-41.5,34.09c-9.39,10.14-25.02,3.77-28.15-11.46L.23,26.52C-1.06,11.29,3.33,5.5,6.48,3.04c16.14-12.58,57,17.75,60.93,20.72,36.78,27.75,64.63,70.26,74.68,101.53,1.54,4.8.33,12.24-3.46,15.7l-24.28,17.76Z"/>
    <g>
      <path class="cls-3" d="M171.08,103c5.45,0,10.4,1.11,14.84,3.34,4.44,2.23,7.88,5.35,10.3,9.36,2.43,4.02,3.64,8.56,3.64,13.63s-1.17,9.93-3.5,13.91c-2.33,3.98-5.77,7.12-10.3,9.42-4.54,2.3-9.53,3.45-14.98,3.45s-10.47-1.15-14.95-3.45c-4.48-2.3-7.89-5.44-10.22-9.42-2.33-3.98-3.5-8.61-3.5-13.91s1.23-9.72,3.7-13.71c2.46-4,5.9-7.1,10.3-9.31,4.4-2.21,9.29-3.31,14.67-3.31ZM157.86,129.34c0,5.11,1.28,9.19,3.84,12.24,2.56,3.05,4.98,4.57,9.27,4.57s7.01-1.46,9.58-4.38c2.58-2.92,3.86-7.1,3.86-12.54s-1.3-9.19-3.89-12.02c-2.59-2.83-5.11-4.24-9.55-4.24-4.18,0-6.58,1.5-9.19,4.49-2.61,2.99-3.92,6.95-3.92,11.88Z"/>
      <path class="cls-3" d="M171.08,156.86c-5.58,0-10.73-1.19-15.29-3.53-4.59-2.35-8.13-5.62-10.52-9.7-2.39-4.07-3.6-8.88-3.6-14.28s1.28-10.01,3.81-14.11c2.53-4.1,6.09-7.32,10.61-9.58,4.49-2.25,9.54-3.39,15.01-3.39s10.65,1.15,15.17,3.42c4.55,2.28,8.12,5.53,10.61,9.64,2.49,4.12,3.75,8.83,3.75,14.02s-1.21,10.21-3.6,14.29c-2.4,4.09-5.97,7.35-10.61,9.71-4.62,2.34-9.77,3.53-15.32,3.53ZM171.08,103.75c-5.23,0-10.06,1.09-14.33,3.23-4.26,2.13-7.62,5.17-10,9.03-2.38,3.86-3.58,8.34-3.58,13.32s1.14,9.68,3.4,13.53c2.25,3.83,5.58,6.91,9.91,9.13,4.35,2.23,9.27,3.37,14.61,3.37s10.23-1.13,14.64-3.37c4.38-2.22,7.75-5.29,10-9.13,2.25-3.84,3.4-8.39,3.4-13.53s-1.19-9.37-3.53-13.24c-2.34-3.87-5.7-6.93-10-9.08-4.32-2.16-9.2-3.26-14.5-3.26ZM170.97,146.89c-4.81,0-7.41-1.93-9.85-4.84-2.66-3.17-4.01-7.45-4.01-12.72s1.38-9.25,4.1-12.37c2.56-2.93,5.08-4.75,9.76-4.75,4.97,0,7.64,1.79,10.11,4.49,2.71,2.96,4.09,7.17,4.09,12.52s-1.36,9.99-4.05,13.03c-2.45,2.78-5.12,4.63-10.15,4.63ZM170.97,113.72c-4.12,0-6.29,1.55-8.63,4.23-2.48,2.84-3.73,6.67-3.73,11.39s1.23,8.86,3.66,11.75c2.29,2.73,4.44,4.3,8.7,4.3,4.48,0,6.77-1.58,9.02-4.13,2.44-2.76,3.68-6.82,3.68-12.04s-1.24-8.84-3.69-11.51c-2.27-2.47-4.56-4-9-4Z"/>
    </g>
    <g>
      <path class="cls-3" d="M238.69,103c6.08,0,11.59,1.15,16.52,3.45v11.44c-4.89-2.77-9.52-4.16-13.89-4.16-4.7,0-8.55,1.43-11.53,4.3-2.99,2.87-4.48,6.74-4.48,11.63s1.5,8.63,4.51,11.55c3,2.92,7.01,4.38,12.01,4.38,3.73,0,8.51-1.21,14.33-3.61v10.89c-5.41,2.15-10.99,3.23-16.74,3.23-8.47,0-15.35-2.37-20.63-7.12-5.28-4.74-7.92-11.04-7.92-18.89s2.58-14.69,7.75-19.65c5.17-4.96,11.86-7.45,20.07-7.45Z"/>
      <path class="cls-3" d="M239.42,156.86c-8.63,0-15.74-2.46-21.13-7.31-5.42-4.87-8.17-11.41-8.17-19.44s2.69-15.11,7.99-20.2c5.29-5.08,12.22-7.65,20.59-7.65,6.17,0,11.83,1.18,16.83,3.52l.43.2v13.21l-1.12-.63c-4.75-2.7-9.3-4.06-13.52-4.06-4.48,0-8.19,1.38-11.02,4.09-2.82,2.71-4.25,6.44-4.25,11.09s1.44,8.25,4.28,11.01c2.85,2.77,6.71,4.17,11.49,4.17,3.62,0,8.34-1.2,14.05-3.56l1.04-.43v12.53l-.47.19c-5.48,2.18-11.2,3.28-17.02,3.28ZM238.69,103.75c-7.97,0-14.55,2.43-19.55,7.24-4.99,4.79-7.52,11.22-7.52,19.11s2.58,13.76,7.67,18.33c5.12,4.59,11.89,6.92,20.13,6.92,5.46,0,10.84-1.01,15.99-2.99v-9.27c-5.43,2.16-10,3.25-13.58,3.25-5.18,0-9.4-1.54-12.53-4.59-3.14-3.05-4.73-7.12-4.73-12.09s1.58-9.18,4.71-12.17c3.12-2.99,7.17-4.51,12.05-4.51,4.14,0,8.55,1.23,13.14,3.64v-9.69c-4.7-2.11-10-3.18-15.77-3.18Z"/>
    </g>
    <g>
      <path class="cls-3" d="M293.31,103c7.69,0,13.77,2.41,18.25,7.23s6.72,11.48,6.72,19.98v2.03h-37.01c.56,4.56,2.3,8.08,5.24,10.54,2.93,2.46,6.95,3.7,12.07,3.7,3.28,0,6.45-.56,9.49-1.67,3.04-1.11,6.19-2.8,9.44-5.06v10.02c-6.12,4.23-13.55,6.35-22.29,6.35-8.25,0-14.99-2.43-20.21-7.28-5.23-4.85-7.84-11.31-7.84-19.38s2.42-14.12,7.25-19.05c4.83-4.93,11.13-7.39,18.9-7.39ZM305.35,124.08c-.37-3.72-1.53-6.63-3.47-8.73-1.94-2.1-4.61-3.15-8.01-3.15s-6.26,1-8.37,3.01c-2.11,2.01-3.44,4.96-4,8.87h23.85Z"/>
      <path class="cls-3" d="M295.21,156.86c-8.41,0-15.38-2.52-20.72-7.48-5.36-4.98-8.08-11.68-8.08-19.93s2.51-14.53,7.47-19.58c4.96-5.05,11.5-7.62,19.43-7.62s14.2,2.51,18.8,7.47c4.59,4.94,6.92,11.83,6.92,20.49v2.78h-36.9c.64,3.94,2.27,7.04,4.85,9.21,2.78,2.33,6.68,3.52,11.58,3.52,3.18,0,6.29-.55,9.23-1.62,2.97-1.09,6.09-2.76,9.26-4.98l1.18-.82v11.85l-.32.22c-6.22,4.3-13.86,6.48-22.71,6.48ZM293.31,103.75c-7.52,0-13.7,2.41-18.36,7.17-4.67,4.76-7.04,10.99-7.04,18.53s2.56,14.15,7.6,18.83c5.06,4.7,11.69,7.08,19.7,7.08s15.63-2.02,21.54-6v-8.21c-2.88,1.9-5.71,3.36-8.43,4.35-3.11,1.14-6.39,1.72-9.75,1.72-5.27,0-9.49-1.3-12.55-3.87-3.07-2.58-4.92-6.29-5.5-11.02l-.1-.84h37.11v-1.28c0-8.27-2.19-14.82-6.52-19.47-4.31-4.64-10.27-6.99-17.7-6.99ZM306.18,124.83h-25.55l.12-.86c.58-4.06,2-7.19,4.23-9.31,2.24-2.13,5.23-3.22,8.89-3.22s6.48,1.14,8.56,3.39c2.04,2.21,3.28,5.3,3.67,9.17l.08.83ZM282.37,123.33h22.13c-.44-3.15-1.5-5.66-3.18-7.47-1.81-1.96-4.25-2.91-7.46-2.91s-5.9.94-7.85,2.8c-1.82,1.73-3.04,4.28-3.64,7.58Z"/>
    </g>
    <g>
      <path class="cls-3" d="M359.57,103c5.6,0,10.07,1.8,13.41,5.39,3.34,3.59,5.01,8.33,5.01,14.21v32.52h-13.72v-31.15c0-3.32-.81-5.95-2.44-7.88-1.62-1.93-3.84-2.9-6.64-2.9-2.13,0-4.12.61-5.99,1.83-1.87,1.22-3.92,3.26-6.16,6.1v34h-13.77v-51.13h13.77v7.17c2.54-2.92,5.14-5.01,7.81-6.27,2.67-1.26,5.57-1.89,8.71-1.89Z"/>
      <path class="cls-3" d="M378.74,155.87h-15.22v-31.9c0-3.12-.76-5.61-2.26-7.4-1.49-1.77-3.47-2.63-6.06-2.63-1.97,0-3.85.58-5.58,1.71-1.75,1.14-3.7,3.07-5.82,5.74v34.49h-15.27v-52.63h15.27v6c2.19-2.26,4.45-3.94,6.74-5.02,2.76-1.3,5.79-1.96,9.03-1.96,5.79,0,10.49,1.89,13.96,5.63,3.46,3.72,5.21,8.67,5.21,14.72v33.27ZM365.03,154.37h12.22v-31.77c0-5.65-1.62-10.26-4.81-13.7-3.18-3.42-7.51-5.15-12.86-5.15-3.01,0-5.83.61-8.39,1.82-2.56,1.21-5.11,3.25-7.56,6.08l-1.32,1.51v-8.43h-12.27v49.63h12.27v-33.51l.16-.2c2.28-2.9,4.41-5.01,6.34-6.27,1.98-1.3,4.14-1.96,6.4-1.96,3.02,0,5.44,1.07,7.21,3.17,1.73,2.07,2.61,4.88,2.61,8.37v30.4Z"/>
    </g>
    <g>
      <path class="cls-3" d="M409.77,90.41h1.12v13.58h17.92v10.18h-17.92v23.6c0,2.3.71,4.16,2.13,5.58,1.42,1.42,3.36,2.13,5.82,2.13,3.21,0,6.91-1.13,11.09-3.39v10.79c-4.96,2.15-9.63,3.23-14,3.23-5.9,0-10.5-1.57-13.8-4.71-3.3-3.14-4.96-7.39-4.96-12.76v-24.47h-8.18v-2.19l20.77-21.57Z"/>
      <path class="cls-3" d="M415.93,156.86c-6.07,0-10.89-1.65-14.32-4.91-3.44-3.27-5.19-7.75-5.19-13.3v-23.72h-8.18v-3.24l21.2-22.02h2.19v13.58h17.92v11.68h-17.92v22.85c0,2.11.62,3.77,1.91,5.05,1.28,1.29,3.01,1.91,5.29,1.91,3.07,0,6.68-1.11,10.73-3.3l1.11-.6v12.54l-.45.2c-5.04,2.18-9.85,3.29-14.3,3.29ZM389.74,113.42h8.18v25.22c0,5.13,1.59,9.24,4.72,12.21,3.14,2.99,7.61,4.5,13.29,4.5,4.11,0,8.57-1,13.25-2.97v-9.05c-3.83,1.93-7.3,2.91-10.34,2.91-2.66,0-4.8-.79-6.35-2.36-1.56-1.56-2.35-3.62-2.35-6.11v-24.35h17.92v-8.68h-17.92v-13.58h-.05l-20.34,21.12v1.14Z"/>
    </g>
    <g class="cls-4">
      <path class="cls-2" d="M166.97,198.08c-1.38,0-2.59-.29-3.62-.85s-1.84-1.39-2.41-2.46c-.57-1.07-.86-2.35-.86-3.84,0-1.42.22-2.78.67-4.09s1.1-2.49,1.94-3.52,1.85-1.86,3.04-2.47c1.18-.61,2.51-.91,3.98-.91,1.38,0,2.58.28,3.61.85,1.03.57,1.83,1.39,2.4,2.45.57,1.06.86,2.34.86,3.84s-.22,2.79-.67,4.11-1.09,2.49-1.93,3.53-1.85,1.86-3.03,2.47c-1.18.61-2.5.91-3.97.91ZM167.08,195.61c1.07,0,2.03-.24,2.88-.73s1.55-1.14,2.14-1.96c.58-.82,1.02-1.74,1.32-2.74.3-1,.45-2.02.45-3.06s-.18-1.9-.54-2.6-.86-1.23-1.5-1.58-1.38-.53-2.23-.53c-1.08,0-2.05.24-2.89.73-.84.49-1.56,1.14-2.14,1.96-.59.82-1.03,1.73-1.34,2.73-.3,1-.46,2.02-.46,3.06s.18,1.91.54,2.6c.36.7.86,1.23,1.51,1.59.65.36,1.39.54,2.24.54Z"/>
      <path class="cls-2" d="M182.15,190.07l-1.31,7.77h-2.65l2.24-13.27h2.51l-.51,3.25-.29-.09c.58-1.16,1.27-2.01,2.08-2.53s1.73-.79,2.76-.79c.94,0,1.73.2,2.38.59.65.39,1.1.97,1.38,1.72.27.76.31,1.68.12,2.78l-1.41,8.34h-2.64l1.38-8.19c.16-.97.04-1.71-.37-2.21-.41-.5-1.03-.75-1.88-.75-.62,0-1.19.13-1.73.4-.53.27-.98.66-1.35,1.16s-.61,1.11-.73,1.82Z"/>
      <path class="cls-2" d="M198.98,198.13c-1.14,0-2.12-.21-2.93-.64-.81-.43-1.44-1.04-1.88-1.84-.44-.8-.66-1.77-.66-2.89s.19-2.23.57-3.25.9-1.92,1.58-2.69c.68-.78,1.47-1.39,2.38-1.83.91-.44,1.89-.66,2.95-.66.9,0,1.69.15,2.36.45.68.3,1.21.73,1.58,1.28s.57,1.21.57,1.97-.21,1.42-.63,1.95c-.42.53-1.06.96-1.92,1.28s-1.95.55-3.27.69-2.87.21-4.66.21l.32-1.79c1.48,0,2.72-.04,3.71-.11.99-.08,1.76-.2,2.33-.37.57-.17.97-.41,1.21-.71.24-.3.35-.67.35-1.12,0-.47-.2-.85-.6-1.14-.4-.29-.94-.43-1.61-.43-.87,0-1.6.21-2.19.63-.59.42-1.07.96-1.43,1.61-.36.66-.62,1.34-.79,2.06s-.25,1.38-.25,1.98.1,1.15.29,1.63c.2.49.52.87.97,1.16.45.28,1.06.43,1.82.43.8,0,1.51-.17,2.14-.51s1.08-.8,1.39-1.39l2.42.51c-.47,1.08-1.26,1.94-2.35,2.58-1.1.64-2.35.96-3.76.96Z"/>
      <path class="cls-2" d="M217.95,197.84l-1.89-17.68h2.89l.88,10.13c.06.62.1,1.27.12,1.95.02.67.04,1.35.06,2.04.02.69.03,1.38.04,2.06h-.41c.24-.69.49-1.38.73-2.06.25-.69.5-1.37.76-2.04.26-.67.53-1.32.8-1.95l4.37-10.13h3.01l.94,10.13c.06.62.1,1.27.14,1.95.04.67.07,1.35.09,2.04.02.69.04,1.38.06,2.06h-.44c.24-.69.48-1.38.73-2.06.25-.69.5-1.37.75-2.04.25-.67.51-1.32.78-1.95l4.28-10.13h2.91l-7.86,17.68h-3.16l-1.08-10.48c-.09-.83-.14-1.72-.16-2.67-.02-.95-.02-2.01-.02-3.19h.61c-.39,1.12-.74,2.16-1.07,3.11-.33.95-.69,1.87-1.07,2.75l-4.61,10.48h-3.18Z"/>
      <path class="cls-2" d="M239.11,197.84l2.23-13.27h2.65l-2.23,13.27h-2.65ZM243.01,182.55c-.46,0-.82-.15-1.1-.45-.27-.3-.37-.66-.3-1.09.07-.44.3-.8.67-1.1.38-.3.79-.45,1.24-.45s.82.15,1.1.45c.28.3.38.67.31,1.1-.07.43-.3.79-.67,1.09-.38.3-.79.45-1.25.45Z"/>
      <path class="cls-2" d="M249.4,190.07l-1.31,7.77h-2.65l2.24-13.27h2.51l-.51,3.25-.29-.09c.58-1.16,1.27-2.01,2.08-2.53s1.73-.79,2.76-.79c.94,0,1.73.2,2.38.59.65.39,1.1.97,1.38,1.72.27.76.31,1.68.12,2.78l-1.41,8.34h-2.64l1.38-8.19c.16-.97.04-1.71-.37-2.21-.41-.5-1.03-.75-1.88-.75-.62,0-1.19.13-1.73.4-.53.27-.98.66-1.35,1.16s-.61,1.11-.73,1.82Z"/>
      <path class="cls-2" d="M265.5,198.1c-1.43,0-2.57-.47-3.44-1.41-.87-.94-1.3-2.24-1.3-3.9,0-1.04.15-2.05.46-3.05.3-1,.75-1.9,1.32-2.7.58-.8,1.28-1.44,2.12-1.92.83-.48,1.78-.72,2.85-.72.86,0,1.53.14,2.02.42.48.28.85.61,1.08.99.24.38.41.71.52.98h.14l1.11-6.64h2.66l-2.97,17.68h-2.59l.37-2.08h-.22c-.21.32-.48.66-.82,1.02-.34.36-.78.67-1.32.93-.54.26-1.2.39-2,.39ZM266.16,195.89c.75,0,1.42-.18,1.99-.55.57-.37,1.04-.85,1.43-1.46.38-.6.67-1.27.86-1.99s.29-1.43.29-2.14c0-.96-.22-1.72-.67-2.28s-1.12-.84-2.04-.84c-.75,0-1.4.18-1.97.54-.57.36-1.04.83-1.43,1.42-.38.59-.67,1.24-.87,1.95-.2.71-.29,1.41-.29,2.11,0,.95.22,1.73.66,2.33.44.61,1.12.91,2.05.91Z"/>
      <path class="cls-2" d="M281.53,198.12c-1.13,0-2.1-.22-2.9-.68-.8-.45-1.42-1.09-1.85-1.9-.43-.82-.64-1.78-.64-2.88s.17-2.07.51-3.06.82-1.87,1.46-2.65,1.41-1.4,2.32-1.86c.91-.46,1.94-.68,3.09-.68s2.09.22,2.9.67c.81.45,1.43,1.08,1.86,1.91.43.82.64,1.79.64,2.9s-.17,2.09-.51,3.08c-.34.98-.83,1.87-1.47,2.64-.65.78-1.42,1.39-2.33,1.84-.91.45-1.94.68-3.07.68ZM281.6,195.91c.78,0,1.46-.19,2.04-.56.58-.37,1.07-.86,1.46-1.45.39-.6.68-1.25.87-1.96s.29-1.39.29-2.06c0-.62-.1-1.18-.29-1.67-.2-.49-.5-.88-.92-1.16-.42-.28-.96-.43-1.61-.43-.77,0-1.44.18-2.02.55s-1.06.85-1.45,1.46c-.39.6-.68,1.26-.88,1.96-.2.7-.29,1.4-.29,2.08,0,.93.22,1.7.67,2.31.45.62,1.16.92,2.14.92Z"/>
      <path class="cls-2" d="M293.32,197.84l-1.82-13.27h2.79l.55,5.49c.08.82.16,1.74.23,2.75s.13,2.15.16,3.41h-.39c.43-1.22.86-2.33,1.28-3.35s.81-1.95,1.18-2.81l2.41-5.49h2.65l.54,5.49c.08.82.16,1.74.23,2.75.07,1.01.12,2.15.16,3.41h-.4c.43-1.23.85-2.34,1.26-3.35s.8-1.94,1.18-2.81l2.41-5.49h2.82l-6.28,13.27h-2.66l-.7-5.71c-.06-.54-.12-1.12-.18-1.74s-.11-1.27-.15-1.95c-.04-.68-.09-1.35-.14-2.01h.52c-.26.66-.53,1.32-.81,1.99-.27.67-.54,1.32-.81,1.95s-.52,1.22-.77,1.77l-2.61,5.7h-2.66Z"/>
      <path class="cls-2" d="M308.1,202.25l2.23-6.94h2.85l-3.15,6.94h-1.93Z"/>
      <path class="cls-2" d="M321.96,197.84l9.35-17.68h3.37l3.53,17.68h-2.85l-1.84-9.84c-.12-.73-.26-1.65-.41-2.77-.15-1.12-.31-2.44-.48-3.96h.55c-.64,1.46-1.22,2.75-1.73,3.86s-.96,2.07-1.35,2.87l-5.05,9.84h-3.08ZM326.19,193.18l.38-2.25h9.31l-.37,2.25h-9.32Z"/>
      <path class="cls-2" d="M346.34,180.16l-2.97,17.68h-2.65l2.97-17.68h2.65Z"/>
      <path class="cls-2" d="M352.67,180.16l-2.97,17.68h-2.65l2.97-17.68h2.65Z"/>
      <path class="cls-2" d="M367.85,198.08c-1.38,0-2.58-.29-3.62-.85s-1.83-1.39-2.4-2.46c-.57-1.07-.85-2.35-.85-3.84,0-1.4.22-2.76.67-4.08s1.09-2.5,1.93-3.54c.83-1.04,1.84-1.87,3.03-2.47,1.18-.61,2.51-.91,3.98-.91.96,0,1.84.13,2.64.4s1.49.65,2.08,1.16c.59.51,1.04,1.13,1.36,1.88.32.74.47,1.58.46,2.52h-2.76c-.02-.55-.12-1.05-.32-1.48-.2-.44-.47-.8-.81-1.1s-.75-.52-1.22-.68-.97-.23-1.52-.23c-1.08,0-2.04.24-2.88.73-.85.49-1.56,1.14-2.14,1.96-.58.82-1.03,1.73-1.34,2.74-.31,1.01-.46,2.03-.46,3.06s.18,1.91.54,2.61c.36.7.86,1.23,1.51,1.59.65.36,1.39.53,2.23.53.59,0,1.16-.08,1.71-.23.55-.15,1.07-.38,1.54-.68s.89-.66,1.26-1.1c.37-.43.65-.93.86-1.48h2.77c-.29.87-.7,1.67-1.23,2.39-.53.72-1.16,1.35-1.88,1.89s-1.52.95-2.39,1.24c-.87.29-1.79.43-2.76.43Z"/>
      <path class="cls-2" d="M383.89,180.16l-2.97,17.68h-2.65l2.97-17.68h2.65Z"/>
      <path class="cls-2" d="M390.38,198.12c-1.13,0-2.1-.22-2.9-.68-.8-.45-1.42-1.09-1.85-1.9-.43-.82-.64-1.78-.64-2.88s.17-2.07.51-3.06.82-1.87,1.46-2.65,1.41-1.4,2.32-1.86c.91-.46,1.94-.68,3.09-.68s2.09.22,2.9.67c.81.45,1.43,1.08,1.86,1.91.43.82.64,1.79.64,2.9s-.17,2.09-.51,3.08c-.34.98-.83,1.87-1.47,2.64-.65.78-1.42,1.39-2.33,1.84-.91.45-1.94.68-3.07.68ZM390.45,195.91c.78,0,1.46-.19,2.04-.56.58-.37,1.07-.86,1.46-1.45.39-.6.68-1.25.87-1.96s.29-1.39.29-2.06c0-.62-.1-1.18-.29-1.67-.2-.49-.5-.88-.92-1.16-.42-.28-.96-.43-1.61-.43-.77,0-1.44.18-2.02.55s-1.06.85-1.45,1.46c-.39.6-.68,1.26-.88,1.96-.2.7-.29,1.4-.29,2.08,0,.93.22,1.7.67,2.31.45.62,1.16.92,2.14.92Z"/>
      <path class="cls-2" d="M404.19,198.01c-.91,0-1.67-.19-2.3-.56-.63-.38-1.07-.94-1.33-1.68-.26-.74-.3-1.67-.11-2.77l1.41-8.42h2.65l-1.35,8.1c-.16.95-.04,1.7.37,2.24s1.05.81,1.94.81c.59,0,1.15-.13,1.66-.38.51-.25.95-.62,1.31-1.12.36-.49.6-1.09.72-1.8l1.31-7.86h2.65l-2.23,13.27h-2.53l.53-3.25h.26c-.59,1.2-1.31,2.07-2.15,2.61s-1.78.81-2.82.81Z"/>
      <path class="cls-2" d="M419.69,198.1c-1.43,0-2.57-.47-3.44-1.41-.87-.94-1.3-2.24-1.3-3.9,0-1.04.15-2.05.46-3.05.3-1,.75-1.9,1.32-2.7.58-.8,1.28-1.44,2.12-1.92.83-.48,1.78-.72,2.85-.72.86,0,1.53.14,2.02.42.48.28.85.61,1.08.99.24.38.41.71.52.98h.14l1.11-6.64h2.66l-2.97,17.68h-2.59l.37-2.08h-.22c-.21.32-.48.66-.82,1.02-.34.36-.78.67-1.32.93-.54.26-1.2.39-2,.39ZM420.35,195.89c.75,0,1.42-.18,1.99-.55.57-.37,1.04-.85,1.43-1.46.38-.6.67-1.27.86-1.99s.29-1.43.29-2.14c0-.96-.22-1.72-.67-2.28s-1.12-.84-2.04-.84c-.75,0-1.4.18-1.97.54-.57.36-1.04.83-1.43,1.42-.38.59-.67,1.24-.87,1.95-.2.71-.29,1.41-.29,2.11,0,.95.22,1.73.66,2.33.44.61,1.12.91,2.05.91Z"/>
    </g>
  </g>
</svg>