<?xml version="1.0" encoding="utf-8"?>
<!-- Generator: Adobe Illustrator 28.3.0, SVG Export Plug-In . SVG Version: 6.00 Build 0)  -->
<svg version="1.1" id="Layer_2_00000080915355549693379420000008156726591925178784_"
	 xmlns="http://www.w3.org/2000/svg" xmlns:xlink="http://www.w3.org/1999/xlink" x="0px" y="0px" viewBox="0 0 430.7 207.7"
	 style="enable-background:new 0 0 430.7 207.7;" xml:space="preserve">
<style type="text/css">
	.st0{fill:#C12C27;}
	.st1{enable-background:new    ;}
	.st2{fill:#959595;}
</style>
<g id="Layer_1-2">
	<g>
		<path class="st0" d="M64.5,117c-0.8-32.5,48.9-32.2,48.2,0.1C113.1,148.9,63.7,148.9,64.5,117z"/>
	</g>
	<g>
		<path class="st0" d="M114.3,158.8c-4-1-8.2-2.6-12.9-4.6l0.1-0.8c46.8-12.6,35.5-76.8-12.4-75.7c-29.9-2.1-54,29.2-39.8,56.4
			c5.4,10.8,15.3,18.8,27.2,21c8.9,6.4,17.4,10.9,25.6,13.7l-41.5,34.1c-9.4,10.1-25,3.8-28.2-11.5L0.2,26.5
			C-1.1,11.3,3.3,5.5,6.5,3c16.1-12.6,57,17.8,60.9,20.7C104.2,51.5,132,94,142.1,125.3c1.5,4.8,0.3,12.2-3.5,15.7L114.3,158.8
			L114.3,158.8z"/>
	</g>
	<g>
		<path d="M171.1,103c5.4,0,10.4,1.1,14.8,3.3c4.4,2.2,7.9,5.3,10.3,9.4c2.4,4,3.6,8.6,3.6,13.6s-1.2,9.9-3.5,13.9
			s-5.8,7.1-10.3,9.4c-4.5,2.3-9.5,3.4-15,3.4s-10.5-1.1-14.9-3.4s-7.9-5.4-10.2-9.4s-3.5-8.6-3.5-13.9s1.2-9.7,3.7-13.7
			c2.5-4,5.9-7.1,10.3-9.3C160.8,104.1,165.7,103,171.1,103z M157.9,129.3c0,5.1,1.3,9.2,3.8,12.2s5,4.6,9.3,4.6s7-1.5,9.6-4.4
			c2.6-2.9,3.9-7.1,3.9-12.5s-1.3-9.2-3.9-12s-5.1-4.2-9.6-4.2c-4.2,0-6.6,1.5-9.2,4.5S157.9,124.4,157.9,129.3L157.9,129.3z"/>
		<path d="M171.1,156.9c-5.6,0-10.7-1.2-15.3-3.5c-4.6-2.4-8.1-5.6-10.5-9.7c-2.4-4.1-3.6-8.9-3.6-14.3c0-5.3,1.2-10,3.8-14.1
			c2.5-4.1,6.1-7.3,10.6-9.6c4.5-2.2,9.5-3.4,15-3.4c5.6,0,10.7,1.2,15.2,3.4c4.6,2.3,8.1,5.5,10.6,9.6c2.5,4.1,3.7,8.8,3.7,14
			c0,5.3-1.2,10.3-3.6,14.3c-2.4,4.1-6,7.3-10.6,9.7C181.8,155.7,176.6,156.9,171.1,156.9z M171.1,103.8c-5.2,0-10.1,1.1-14.3,3.2
			c-4.3,2.1-7.6,5.2-10,9c-2.4,3.9-3.6,8.3-3.6,13.3c0,5.1,1.1,9.7,3.4,13.5c2.2,3.8,5.6,6.9,9.9,9.1c4.4,2.2,9.3,3.4,14.6,3.4
			c5.3,0,10.2-1.1,14.6-3.4c4.4-2.2,7.7-5.3,10-9.1c2.2-3.8,3.4-8.5,3.4-13.5c0-4.9-1.2-9.4-3.5-13.2c-2.3-3.9-5.7-6.9-10-9.1
			C181.3,104.8,176.4,103.8,171.1,103.8z M171,146.9c-4.8,0-7.4-1.9-9.8-4.8c-2.7-3.2-4-7.5-4-12.7c0-5.1,1.4-9.3,4.1-12.4
			c2.6-2.9,5.1-4.7,9.8-4.7c5,0,7.6,1.8,10.1,4.5c2.8,3,4.1,7,4.1,12.5c0,5.6-1.4,10-4,13C178.3,145.5,175.2,146.9,171,146.9z
			 M171,113.7c-4.1,0-6.3,1.6-8.6,4.2c-2.5,2.8-3.7,6.7-3.7,11.4c0,4.9,1.2,8.9,3.7,11.8c2.3,2.7,4.4,4.3,8.7,4.3
			c3.8,0,6.4-1.2,9-4.1c2.4-2.8,3.7-6.8,3.7-12c0-5.1-1.2-8.8-3.7-11.5C177.7,115.2,175.4,113.7,171,113.7z"/>
	</g>
	<g>
		<path d="M238.7,103c6.1,0,11.6,1.2,16.5,3.4v11.4c-4.9-2.8-9.5-4.2-13.9-4.2c-4.7,0-8.6,1.4-11.5,4.3c-3,2.9-4.5,6.7-4.5,11.6
			c0,4.9,1.5,8.6,4.5,11.6c3,2.9,7,4.4,12,4.4c3.7,0,8.5-1.2,14.3-3.6v10.9c-5.4,2.1-11,3.2-16.7,3.2c-8.5,0-15.4-2.4-20.6-7.1
			c-5.3-4.7-7.9-11-7.9-18.9s2.6-14.7,7.8-19.7S230.5,103,238.7,103L238.7,103z"/>
		<path d="M239.4,156.8c-8.6,0-15.7-2.5-21.1-7.3c-5.4-4.9-8.2-11.4-8.2-19.4c0-8.2,2.8-15.2,8-20.2c5.3-5.1,12.2-7.7,20.6-7.7
			l0.8,0c5.9,0.1,11.3,1.3,16.1,3.5l0.4,0.2v13.2l-1.1-0.6c-4.8-2.7-9.3-4.1-13.5-4.1c-4.5,0-8.2,1.4-11,4.1
			c-2.9,2.7-4.3,6.4-4.3,11.1c0,4.6,1.4,8.2,4.3,11c2.8,2.8,6.7,4.2,11.5,4.2c3.6,0,8.3-1.2,14-3.6l1-0.4v12.5l-0.5,0.2
			C251,155.7,245.2,156.8,239.4,156.8z M237.9,103.7c-7.6,0.1-14,2.6-18.8,7.2c-4.9,4.7-7.5,11.3-7.5,19.1c0,7.6,2.6,13.8,7.7,18.3
			c5.1,4.6,11.9,6.9,20.1,6.9c5.5,0,10.8-1,16-3v-9.3c-5.4,2.2-10,3.2-13.6,3.2c-5.2,0-9.4-1.5-12.5-4.6c-3.2-3.1-4.7-7-4.7-12.1
			c0-5.1,1.6-9.2,4.7-12.2c3.1-3,7.2-4.5,12-4.5c4.1,0,8.6,1.2,13.1,3.6v-9.7c-4.7-2.1-10-3.2-15.8-3.2L237.9,103.7z"/>
	</g>
	<g>
		<path d="M293.3,103c7.7,0,13.8,2.4,18.2,7.2s6.7,11.5,6.7,20v2h-37c0.6,4.6,2.3,8.1,5.2,10.5c2.9,2.5,7,3.7,12.1,3.7
			c3.3,0,6.5-0.6,9.5-1.7c3-1.1,6.2-2.8,9.4-5.1v10c-6.1,4.2-13.5,6.4-22.3,6.4c-8.2,0-15-2.4-20.2-7.3c-5.2-4.9-7.8-11.3-7.8-19.4
			s2.4-14.1,7.2-19.1S285.5,103,293.3,103L293.3,103z M305.4,124.1c-0.4-3.7-1.5-6.6-3.5-8.7s-4.6-3.2-8-3.2s-6.3,1-8.4,3
			s-3.4,5-4,8.9C281.5,124.1,305.4,124.1,305.4,124.1z"/>
		<path d="M295.2,156.9c-8.4,0-15.4-2.5-20.7-7.5c-5.4-5-8.1-11.7-8.1-19.9c0-8.2,2.4-14.4,7.5-19.6c4.7-4.8,10.8-7.3,18.2-7.6l0,0
			l1.2,0c7.9,0,14.2,2.5,18.8,7.5c4.6,4.9,6.9,11.8,6.9,20.5v2.8h-36.9c0.6,4,2.3,7.1,4.9,9.2c2.8,2.3,6.7,3.5,11.6,3.5
			c3.2,0,6.3-0.5,9.2-1.6c3-1.1,6.1-2.8,9.3-5l1.2-0.8v11.8l-0.3,0.2C311.7,154.7,304.1,156.9,295.2,156.9z M293.3,103.8
			c-7.5,0-13.7,2.4-18.4,7.2c-4.8,4.9-7,10.8-7,18.5c0,7.8,2.6,14.2,7.6,18.8c5.1,4.7,11.7,7.1,19.7,7.1c8.4,0,15.6-2,21.5-6v-8.2
			c-2.9,1.9-5.7,3.4-8.4,4.4c-3.1,1.1-6.4,1.7-9.7,1.7c-5.3,0-9.5-1.3-12.6-3.9c-3.1-2.6-4.9-6.3-5.5-11l-0.1-0.8h37.1v-1.3
			c0-8.3-2.2-14.8-6.5-19.5c-4.1-4.4-9.6-6.7-16.5-7H293.3z M306.2,124.8h-25.5l0.1-0.9c0.6-4.1,2-7.2,4.2-9.3
			c2.2-2.1,5.2-3.2,8.9-3.2c3.6,0,6.5,1.1,8.6,3.4c2,2.2,3.3,5.3,3.7,9.2L306.2,124.8z M282.4,123.3h22.1c-0.4-3.1-1.5-5.7-3.2-7.5
			c-1.8-2-4.2-2.9-7.5-2.9c-3.3,0-5.9,0.9-7.9,2.8C284.2,117.5,283,120,282.4,123.3z"/>
	</g>
	<g>
		<path d="M359.6,103c5.6,0,10.1,1.8,13.4,5.4s5,8.3,5,14.2v32.5h-13.7V124c0-3.3-0.8-5.9-2.4-7.9c-1.6-1.9-3.8-2.9-6.6-2.9
			c-2.1,0-4.1,0.6-6,1.8s-3.9,3.3-6.2,6.1v34h-13.8V104H343v7.2c2.5-2.9,5.1-5,7.8-6.3C353.5,103.6,356.4,103,359.6,103L359.6,103z"
			/>
		<path d="M378.7,155.9h-15.2V124c0-3.1-0.8-5.6-2.3-7.4c-1.5-1.8-3.5-2.6-6.1-2.6c-2,0-3.8,0.6-5.6,1.7c-1.7,1.1-3.7,3.1-5.8,5.7
			v34.5h-15.3v-52.6h15.3v6c2.2-2.3,4.5-3.9,6.7-5c2.8-1.3,5.8-2,9-2h0c5.8,0,10.5,1.9,14,5.6c3.5,3.7,5.2,8.7,5.2,14.7V155.9z
			 M365,154.4h12.2v-31.8c0-5.7-1.6-10.3-4.8-13.7c-3.2-3.4-7.5-5.2-12.9-5.2h0c-3,0-5.8,0.6-8.4,1.8c-2.6,1.2-5.1,3.3-7.6,6.1
			l-1.3,1.5v-8.4H330v49.6h12.3v-33.5l0.2-0.2c2.3-2.9,4.4-5,6.3-6.3c2-1.3,4.1-2,6.4-2c3,0,5.4,1.1,7.2,3.2
			c1.7,2.1,2.6,4.9,2.6,8.4V154.4z"/>
	</g>
	<g>
		<path d="M409.8,90.4h1.1V104h17.9v10.2h-17.9v23.6c0,2.3,0.7,4.2,2.1,5.6s3.4,2.1,5.8,2.1c3.2,0,6.9-1.1,11.1-3.4v10.8
			c-5,2.1-9.6,3.2-14,3.2c-5.9,0-10.5-1.6-13.8-4.7s-5-7.4-5-12.8v-24.5H389V112L409.8,90.4L409.8,90.4z"/>
		<path d="M415.9,156.9c-6.1,0-10.9-1.7-14.3-4.9c-3.4-3.3-5.2-7.8-5.2-13.3v-23.7h-8.2v-3.2l21.2-22h2.2v13.6h17.9v11.7h-17.9v22.8
			c0,2.1,0.6,3.8,1.9,5c1.3,1.3,3,1.9,5.3,1.9c3.1,0,6.7-1.1,10.7-3.3l1.1-0.6v12.5l-0.5,0.2C425.2,155.8,420.4,156.9,415.9,156.9z
			 M389.7,113.4h8.2v25.2c0,5.1,1.6,9.2,4.7,12.2c3.1,3,7.6,4.5,13.3,4.5c4.1,0,8.6-1,13.2-3v-9.1c-3.8,1.9-7.3,2.9-10.3,2.9
			c-2.7,0-4.8-0.8-6.4-2.4c-1.6-1.6-2.3-3.6-2.3-6.1v-24.3h17.9v-8.7h-17.9V91.2h-0.1l-20.3,21.1V113.4z"/>
	</g>
	<g class="st1">
		<path class="st2" d="M166.9,198.1c-1.4,0-2.5-0.3-3.5-0.9c-1-0.6-1.8-1.4-2.3-2.5s-0.8-2.3-0.8-3.8c0-1.4,0.2-2.8,0.7-4.1
			c0.4-1.3,1.1-2.5,1.9-3.5c0.8-1,1.8-1.9,3-2.5c1.2-0.6,2.5-0.9,3.9-0.9c1.4,0,2.5,0.3,3.5,0.9c1,0.6,1.8,1.4,2.3,2.4
			s0.8,2.3,0.8,3.8c0,1.4-0.2,2.8-0.7,4.1s-1.1,2.5-1.9,3.5c-0.8,1-1.8,1.9-3,2.5C169.6,197.8,168.3,198.1,166.9,198.1z M167,196
			c1.1,0,2.1-0.3,3-0.8c0.9-0.5,1.6-1.2,2.3-2s1.1-1.8,1.4-2.9s0.5-2.1,0.5-3.2c0-1.1-0.2-2-0.6-2.8c-0.4-0.8-0.9-1.3-1.6-1.7
			c-0.7-0.4-1.5-0.6-2.4-0.6c-1.1,0-2.1,0.3-3,0.8c-0.9,0.5-1.6,1.2-2.3,2c-0.6,0.9-1.1,1.8-1.4,2.9c-0.3,1.1-0.5,2.1-0.5,3.2
			c0,1.1,0.2,2,0.6,2.8c0.4,0.8,0.9,1.3,1.6,1.7C165.3,195.8,166.1,196,167,196z"/>
		<path class="st2" d="M181.6,190l-1.3,7.9h-2.2l2.2-13.3h2.1l-0.5,3.2l-0.3-0.1c0.6-1.2,1.3-2.1,2.1-2.6s1.7-0.8,2.7-0.8
			c0.9,0,1.7,0.2,2.3,0.6c0.6,0.4,1.1,0.9,1.4,1.7c0.3,0.8,0.3,1.7,0.1,2.8l-1.4,8.4h-2.2l1.4-8.3c0.2-1,0-1.8-0.4-2.4
			c-0.4-0.5-1.1-0.8-2-0.8c-0.7,0-1.3,0.1-1.8,0.4s-1.1,0.7-1.5,1.2C181.9,188.6,181.7,189.2,181.6,190z"/>
		<path class="st2" d="M198.2,198.1c-1.1,0-2-0.2-2.8-0.6c-0.8-0.4-1.4-1-1.8-1.8c-0.4-0.8-0.6-1.8-0.6-2.9c0-1.2,0.2-2.3,0.6-3.3
			c0.4-1,0.9-1.9,1.6-2.7c0.7-0.8,1.4-1.4,2.3-1.8c0.9-0.4,1.8-0.7,2.8-0.7c0.9,0,1.6,0.1,2.3,0.4s1.1,0.7,1.5,1.3
			c0.4,0.5,0.5,1.2,0.5,1.9c0,0.7-0.2,1.4-0.6,1.9c-0.4,0.5-1,1-1.8,1.3c-0.8,0.3-1.9,0.6-3.1,0.7c-1.3,0.2-2.8,0.2-4.6,0.2l0.3-1.6
			c1.5,0,2.7,0,3.7-0.1c1-0.1,1.8-0.2,2.3-0.4s1-0.5,1.2-0.8c0.3-0.3,0.4-0.7,0.4-1.2c0-0.5-0.2-0.9-0.6-1.2c-0.4-0.3-1-0.5-1.7-0.5
			c-0.9,0-1.7,0.2-2.3,0.6s-1.2,1-1.6,1.7c-0.4,0.7-0.7,1.4-0.9,2.1c-0.2,0.8-0.3,1.5-0.3,2.1c0,0.6,0.1,1.2,0.3,1.8
			c0.2,0.5,0.6,0.9,1.1,1.3c0.5,0.3,1.1,0.5,2,0.5c0.9,0,1.6-0.2,2.3-0.6s1.2-0.9,1.5-1.5l2,0.6c-0.5,1-1.3,1.9-2.3,2.5
			S199.5,198.1,198.2,198.1z"/>
		<path class="st2" d="M217.2,197.8l-1.9-17.7h2.3l1,10.8c0.1,0.6,0.1,1.2,0.1,1.8c0,0.6,0.1,1.2,0.1,1.8c0,0.6,0,1.2,0.1,1.9h-0.3
			c0.2-0.6,0.5-1.3,0.7-1.9c0.2-0.6,0.5-1.2,0.7-1.8s0.5-1.2,0.7-1.8l4.7-10.8h2.6l1.1,10.8c0.1,0.6,0.1,1.2,0.2,1.8
			c0,0.6,0.1,1.2,0.1,1.8c0,0.6,0.1,1.2,0.1,1.9h-0.3c0.2-0.6,0.5-1.3,0.7-1.9c0.2-0.6,0.5-1.2,0.7-1.8s0.5-1.2,0.7-1.8l4.6-10.8
			h2.3l-7.8,17.7h-2.6l-1.2-11.2c-0.1-0.7-0.1-1.5-0.2-2.4c0-0.8-0.1-1.8,0-3h0.5c-0.4,1.1-0.7,2-1,2.9c-0.3,0.8-0.6,1.7-1,2.5
			l-4.9,11.2H217.2z"/>
		<path class="st2" d="M237.8,197.8l2.2-13.3h2.2l-2.2,13.3H237.8z M241.5,182.4c-0.4,0-0.7-0.1-1-0.4c-0.2-0.3-0.3-0.6-0.3-1
			c0.1-0.4,0.3-0.7,0.6-1c0.3-0.3,0.7-0.4,1.1-0.4c0.4,0,0.7,0.1,1,0.4c0.2,0.3,0.3,0.6,0.3,1c-0.1,0.4-0.3,0.7-0.6,1
			C242.3,182.3,241.9,182.4,241.5,182.4z"/>
		<path class="st2" d="M247.2,190l-1.3,7.9h-2.2l2.2-13.3h2.1l-0.5,3.2l-0.3-0.1c0.6-1.2,1.3-2.1,2.1-2.6c0.8-0.5,1.7-0.8,2.7-0.8
			c0.9,0,1.7,0.2,2.3,0.6c0.6,0.4,1.1,0.9,1.4,1.7c0.3,0.8,0.3,1.7,0.1,2.8l-1.4,8.4h-2.2l1.4-8.3c0.2-1,0-1.8-0.4-2.4
			s-1.1-0.8-2-0.8c-0.7,0-1.3,0.1-1.8,0.4s-1.1,0.7-1.5,1.2C247.6,188.6,247.4,189.2,247.2,190z"/>
		<path class="st2" d="M263.4,198.1c-1.5,0-2.6-0.5-3.5-1.4s-1.3-2.3-1.3-3.9c0-1,0.2-2.1,0.5-3.1c0.3-1,0.8-1.9,1.3-2.7
			s1.3-1.4,2.1-1.9c0.8-0.5,1.8-0.7,2.9-0.7c0.9,0,1.6,0.1,2.1,0.4s0.8,0.6,1.1,1c0.2,0.4,0.4,0.7,0.5,0.9h0.1l1.1-6.6h2.2l-3,17.7
			h-2.1l0.4-2.1h-0.2c-0.2,0.3-0.5,0.6-0.8,1c-0.3,0.4-0.8,0.7-1.3,1C264.9,198,264.2,198.1,263.4,198.1z M263.8,196.2
			c0.8,0,1.5-0.2,2.1-0.6c0.6-0.4,1.1-0.9,1.5-1.5c0.4-0.6,0.7-1.3,0.9-2.1c0.2-0.8,0.3-1.5,0.3-2.3c0-1-0.2-1.9-0.7-2.5
			c-0.5-0.6-1.2-0.9-2.2-0.9c-0.8,0-1.5,0.2-2.1,0.6c-0.6,0.4-1.1,0.9-1.5,1.5c-0.4,0.6-0.7,1.3-0.9,2.1c-0.2,0.7-0.3,1.5-0.3,2.2
			c0,1,0.2,1.9,0.7,2.5C262,195.9,262.7,196.2,263.8,196.2z"/>
	</g>
	<g class="st1">
		<path class="st2" d="M281,198.1c-1.1,0-2-0.2-2.8-0.7c-0.8-0.4-1.4-1.1-1.8-1.9c-0.4-0.8-0.6-1.8-0.6-2.9c0-1.1,0.2-2.1,0.5-3.1
			c0.3-1,0.8-1.9,1.4-2.7c0.6-0.8,1.4-1.4,2.3-1.9s1.9-0.7,3-0.7c1.1,0,2,0.2,2.8,0.7c0.8,0.4,1.4,1.1,1.8,1.9
			c0.4,0.8,0.6,1.8,0.6,2.9c0,1.1-0.2,2.1-0.5,3.1c-0.3,1-0.8,1.9-1.5,2.7s-1.4,1.4-2.3,1.9S282.1,198.1,281,198.1z M281,196.2
			c0.8,0,1.5-0.2,2.2-0.6c0.6-0.4,1.2-0.9,1.6-1.5s0.7-1.3,1-2c0.2-0.7,0.3-1.5,0.3-2.2c0-0.7-0.1-1.3-0.3-1.8c-0.2-0.5-0.6-1-1-1.3
			c-0.5-0.3-1.1-0.5-1.8-0.5c-0.8,0-1.5,0.2-2.2,0.6c-0.6,0.4-1.1,0.9-1.6,1.5c-0.4,0.6-0.7,1.3-1,2.1c-0.2,0.7-0.3,1.5-0.3,2.2
			c0,1,0.2,1.8,0.7,2.5C279.1,195.9,279.9,196.2,281,196.2z"/>
	</g>
	<g class="st1">
		<path class="st2" d="M293,197.8l-1.8-13.3h2.3l0.7,5.8c0.1,0.8,0.2,1.7,0.3,2.7c0.1,1,0.2,2.1,0.2,3.4h-0.4
			c0.4-1.2,0.9-2.3,1.3-3.3c0.4-1,0.8-1.9,1.2-2.8l2.6-5.8h2.3l0.6,5.8c0.1,0.8,0.2,1.7,0.2,2.7c0.1,1,0.1,2.1,0.2,3.4h-0.4
			c0.4-1.2,0.9-2.3,1.3-3.3c0.4-1,0.8-1.9,1.2-2.8l2.6-5.8h2.3l-6.3,13.3h-2.1l-0.7-6c-0.1-0.6-0.1-1.2-0.2-1.8s-0.1-1.3-0.2-2
			s-0.1-1.4-0.2-2.1h0.5c-0.3,0.7-0.6,1.4-0.8,2.1c-0.3,0.7-0.6,1.3-0.8,2c-0.3,0.6-0.5,1.2-0.8,1.8l-2.7,6H293z"/>
	</g>
	<g class="st1">
		<path class="st2" d="M307.6,202.1l2.2-6.7h2.5l-3,6.7H307.6z"/>
	</g>
	<g class="st1">
		<path class="st2" d="M321.6,197.8l9.4-17.7h2.6l3.6,17.7H335l-2-10.5c-0.1-0.6-0.2-1.3-0.4-2.4c-0.2-1-0.3-2.3-0.5-3.8h0.4
			c-0.6,1.4-1.2,2.7-1.7,3.7c-0.5,1-0.9,1.8-1.2,2.5l-5.4,10.5H321.6z M325.7,192.9l0.3-2h9.2l-0.3,2H325.7z"/>
		<path class="st2" d="M344.9,180.2l-3,17.7h-2.2l3-17.7H344.9z"/>
		<path class="st2" d="M350.8,180.2l-3,17.7h-2.2l3-17.7H350.8z"/>
		<path class="st2" d="M366.2,198.1c-1.4,0-2.5-0.3-3.5-0.9c-1-0.6-1.8-1.4-2.3-2.5c-0.6-1.1-0.8-2.3-0.8-3.8c0-1.4,0.2-2.7,0.7-4.1
			c0.4-1.3,1.1-2.5,1.9-3.5c0.8-1,1.8-1.9,3-2.5c1.2-0.6,2.5-0.9,3.9-0.9c0.9,0,1.8,0.1,2.5,0.4c0.8,0.3,1.4,0.6,2,1.1
			c0.6,0.5,1,1.1,1.3,1.8c0.3,0.7,0.5,1.5,0.5,2.5H373c0-0.6-0.1-1.1-0.4-1.6c-0.2-0.5-0.5-0.8-0.9-1.2s-0.8-0.6-1.3-0.7
			c-0.5-0.2-1-0.2-1.6-0.2c-1.1,0-2.1,0.3-3,0.8c-0.9,0.5-1.6,1.2-2.3,2c-0.6,0.9-1.1,1.8-1.4,2.9c-0.3,1.1-0.5,2.1-0.5,3.2
			c0,1.1,0.2,2,0.6,2.8c0.4,0.8,0.9,1.3,1.6,1.7c0.7,0.4,1.5,0.6,2.4,0.6c0.6,0,1.2-0.1,1.8-0.2c0.6-0.2,1.1-0.4,1.6-0.7
			c0.5-0.3,1-0.7,1.3-1.2s0.7-1,0.9-1.6h2.3c-0.3,0.9-0.7,1.7-1.3,2.4c-0.5,0.7-1.2,1.3-1.9,1.8c-0.7,0.5-1.5,0.9-2.3,1.2
			S367,198.1,366.2,198.1z"/>
		<path class="st2" d="M381.6,180.2l-3,17.7h-2.2l3-17.7H381.6z"/>
		<path class="st2" d="M388,198.1c-1.1,0-2-0.2-2.8-0.7c-0.8-0.4-1.4-1.1-1.8-1.9c-0.4-0.8-0.6-1.8-0.6-2.9c0-1.1,0.2-2.1,0.5-3.1
			c0.3-1,0.8-1.9,1.4-2.7c0.6-0.8,1.4-1.4,2.3-1.9c0.9-0.5,1.9-0.7,3-0.7c1.1,0,2,0.2,2.8,0.7c0.8,0.4,1.4,1.1,1.8,1.9
			c0.4,0.8,0.6,1.8,0.6,2.9c0,1.1-0.2,2.1-0.5,3.1c-0.3,1-0.8,1.9-1.5,2.7s-1.4,1.4-2.3,1.9S389.1,198.1,388,198.1z M388,196.2
			c0.8,0,1.5-0.2,2.2-0.6c0.6-0.4,1.2-0.9,1.6-1.5s0.7-1.3,1-2c0.2-0.7,0.3-1.5,0.3-2.2c0-0.7-0.1-1.3-0.3-1.8c-0.2-0.5-0.6-1-1-1.3
			c-0.5-0.3-1.1-0.5-1.8-0.5c-0.8,0-1.5,0.2-2.2,0.6c-0.6,0.4-1.1,0.9-1.6,1.5c-0.4,0.6-0.7,1.3-1,2.1c-0.2,0.7-0.3,1.5-0.3,2.2
			c0,1,0.2,1.8,0.7,2.5C386.1,195.9,386.9,196.2,388,196.2z"/>
		<path class="st2" d="M401.7,198c-0.9,0-1.7-0.2-2.3-0.5c-0.6-0.4-1.1-0.9-1.3-1.7c-0.3-0.7-0.3-1.7-0.1-2.8l1.4-8.4h2.2l-1.4,8.2
			c-0.2,1,0,1.8,0.4,2.4s1.1,0.9,2.1,0.9c0.6,0,1.2-0.1,1.8-0.4c0.6-0.3,1-0.7,1.4-1.2c0.4-0.5,0.7-1.2,0.8-1.9l1.3-8h2.2l-2.2,13.3
			h-2.1l0.5-3.2h0.3c-0.6,1.2-1.3,2.1-2.2,2.6C403.6,197.8,402.7,198,401.7,198z"/>
		<path class="st2" d="M416.8,198.1c-1.5,0-2.6-0.5-3.5-1.4s-1.3-2.3-1.3-3.9c0-1,0.2-2.1,0.5-3.1c0.3-1,0.8-1.9,1.3-2.7
			c0.6-0.8,1.3-1.4,2.1-1.9c0.8-0.5,1.8-0.7,2.9-0.7c0.9,0,1.6,0.1,2.1,0.4s0.8,0.6,1.1,1c0.2,0.4,0.4,0.7,0.5,0.9h0.1l1.1-6.6h2.2
			l-3,17.7h-2.1l0.4-2.1H421c-0.2,0.3-0.5,0.6-0.8,1c-0.3,0.4-0.8,0.7-1.3,1C418.3,198,417.6,198.1,416.8,198.1z M417.2,196.2
			c0.8,0,1.5-0.2,2.1-0.6c0.6-0.4,1.1-0.9,1.5-1.5c0.4-0.6,0.7-1.3,0.9-2.1s0.3-1.5,0.3-2.3c0-1-0.2-1.9-0.7-2.5
			c-0.5-0.6-1.2-0.9-2.2-0.9c-0.8,0-1.5,0.2-2.1,0.6c-0.6,0.4-1.1,0.9-1.5,1.5s-0.7,1.3-0.9,2.1c-0.2,0.7-0.3,1.5-0.3,2.2
			c0,1,0.2,1.9,0.7,2.5S416.2,196.2,417.2,196.2z"/>
	</g>
</g>
</svg>
