<?xml version="1.0" encoding="UTF-8"?>
<svg id="Layer_2" data-name="Layer 2" xmlns="http://www.w3.org/2000/svg" viewBox="0 0 430.68 207.7">
  <defs>
    <style>
      .cls-1 {
        fill: #000;
        stroke: #000;
        stroke-miterlimit: 10;
        stroke-width: 1.5px;
      }

      .cls-2 {
        fill: #c12c27;
        stroke-width: 0px;
      }
    </style>
  </defs>
  <g id="Layer_1-2" data-name="Layer 1">
    <path class="cls-2" d="M64.49,117.01c-.83-32.46,48.89-32.23,48.18.09.43,31.85-48.93,31.85-48.18-.09Z"/>
    <path class="cls-2" d="M114.35,158.76c-4-.99-8.17-2.59-12.86-4.64l.11-.77c46.82-12.55,35.48-76.76-12.37-75.7-29.87-2.13-54,29.24-39.79,56.39,5.36,10.78,15.27,18.79,27.19,20.97,8.87,6.35,17.39,10.91,25.58,13.68l-41.5,34.09c-9.39,10.14-25.02,3.77-28.15-11.46L.23,26.52C-1.06,11.29,3.33,5.5,6.48,3.04c16.14-12.58,57,17.75,60.93,20.72,36.78,27.75,64.63,70.26,74.68,101.53,1.54,4.8.33,12.24-3.46,15.7l-24.28,17.76Z"/>
    <path class="cls-1" d="M171.08,103c5.45,0,10.4,1.11,14.84,3.34,4.44,2.23,7.88,5.35,10.3,9.36,2.43,4.02,3.64,8.56,3.64,13.63s-1.17,9.93-3.5,13.91c-2.33,3.98-5.77,7.12-10.3,9.42-4.54,2.3-9.53,3.45-14.98,3.45s-10.47-1.15-14.95-3.45c-4.48-2.3-7.89-5.44-10.22-9.42-2.33-3.98-3.5-8.61-3.5-13.91s1.23-9.72,3.7-13.71c2.46-4,5.9-7.1,10.3-9.31,4.4-2.21,9.29-3.31,14.67-3.31ZM157.86,129.34c0,5.11,1.28,9.19,3.84,12.24,2.56,3.05,4.98,4.57,9.27,4.57s7.01-1.46,9.58-4.38c2.58-2.92,3.86-7.1,3.86-12.54s-1.3-9.19-3.89-12.02c-2.59-2.83-5.11-4.24-9.55-4.24-4.18,0-6.58,1.5-9.19,4.49-2.61,2.99-3.92,6.95-3.92,11.88Z"/>
    <path class="cls-1" d="M238.69,103c6.08,0,11.59,1.15,16.52,3.45v11.44c-4.89-2.77-9.52-4.16-13.89-4.16-4.7,0-8.55,1.43-11.53,4.3-2.99,2.87-4.48,6.74-4.48,11.63s1.5,8.63,4.51,11.55c3,2.92,7.01,4.38,12.01,4.38,3.73,0,8.51-1.21,14.33-3.61v10.89c-5.41,2.15-10.99,3.23-16.74,3.23-8.47,0-15.35-2.37-20.63-7.12-5.28-4.74-7.92-11.04-7.92-18.89s2.58-14.69,7.75-19.65c5.17-4.96,11.86-7.45,20.07-7.45Z"/>
    <path class="cls-1" d="M293.31,103c7.69,0,13.77,2.41,18.25,7.23s6.72,11.48,6.72,19.98v2.03h-37.01c.56,4.56,2.3,8.08,5.24,10.54,2.93,2.46,6.95,3.7,12.07,3.7,3.28,0,6.45-.56,9.49-1.67,3.04-1.11,6.19-2.8,9.44-5.06v10.02c-6.12,4.23-13.55,6.35-22.29,6.35-8.25,0-14.99-2.43-20.21-7.28-5.23-4.85-7.84-11.31-7.84-19.38s2.42-14.12,7.25-19.05c4.83-4.93,11.13-7.39,18.9-7.39ZM305.35,124.08c-.37-3.72-1.53-6.63-3.47-8.73-1.94-2.1-4.61-3.15-8.01-3.15s-6.26,1-8.37,3.01c-2.11,2.01-3.44,4.96-4,8.87h23.85Z"/>
    <path class="cls-1" d="M359.57,103c5.6,0,10.07,1.8,13.41,5.39,3.34,3.59,5.01,8.33,5.01,14.21v32.52h-13.72v-31.15c0-3.32-.81-5.95-2.44-7.88-1.62-1.93-3.84-2.9-6.64-2.9-2.13,0-4.12.61-5.99,1.83-1.87,1.22-3.92,3.26-6.16,6.1v34h-13.77v-51.13h13.77v7.17c2.54-2.92,5.14-5.01,7.81-6.27,2.67-1.26,5.57-1.89,8.71-1.89Z"/>
    <path class="cls-1" d="M409.77,90.41h1.12v13.58h17.92v10.18h-17.92v23.6c0,2.3.71,4.16,2.13,5.58,1.42,1.42,3.36,2.13,5.82,2.13,3.21,0,6.91-1.13,11.09-3.39v10.79c-4.96,2.15-9.63,3.23-14,3.23-5.9,0-10.5-1.57-13.8-4.71-3.3-3.14-4.96-7.39-4.96-12.76v-24.47h-8.18v-2.19l20.77-21.57Z"/>
  </g>
</svg>