<?xml version="1.0" encoding="UTF-8"?>
<svg id="Layer_2" data-name="Layer 2" xmlns="http://www.w3.org/2000/svg" viewBox="0 0 315.76 166.97">
  <defs>
    <style>
      .cls-1 {
        fill: #333;
      }

      .cls-1, .cls-2 {
        stroke-width: 0px;
      }

      .cls-3 {
        fill: #959595;
        font-family: InterItalic-MediumItalic, Inter;
        font-size: 16.34px;
        font-style: italic;
        font-variation-settings: 'opsz' 14, 'wght' 500;
        font-weight: 500;
        opacity: .9;
      }

      .cls-4 {
        letter-spacing: .01em;
      }

      .cls-2 {
        fill: #c80013;
      }

      .cls-5 {
        letter-spacing: 0em;
      }

      .cls-6 {
        letter-spacing: 0em;
      }
    </style>
  </defs>
  <g id="Layer_1-2" data-name="Layer 1">
    <path class="cls-2" d="M85.7,104.63c-1.71,3.16-4.09,5.62-7.17,7.39-3.07,1.77-6.49,2.66-10.25,2.66-6.1,0-11.01-1.92-14.75-5.76-3.75-3.83-5.61-8.83-5.61-14.97s1.86-11.36,5.61-15.19c3.74-3.83,8.65-5.76,14.75-5.76,2.97,0,5.72.55,8.25,1.64.23.1.48.21.7.33.45.21.91.44,1.35.7,3.07,1.78,5.46,4.28,7.14,7.5,1.69,3.2,2.54,6.83,2.54,10.85,0,3.6-.72,6.87-2.18,9.84-.06.14-.13.27-.21.41-.06.11-.11.24-.18.35Z"/>
    <path class="cls-2" d="M98.42,112.33l-7.23,8.72c-1.93-.09-3.99-.38-6.16-.84.01,0,.01-.01.02-.01,26.24-16.42,14.89-57.64-16.49-57.24-37.49-.77-44.24,52.03-8.44,60.91,0,.01.01.01.02.02,2.15.62,5.6,1.25,9.14,1.05,4.73,2.12,10.05,3.84,14.88,4.59-9.21,11.11-18.42,22.21-27.62,33.32-.24.24-5.77,5.6-13.05,3.72-5.39-1.39-9.43-6.15-10.07-11.92L.53,22.07c-6.29-43.02,45.57-10.95,53.92-4.86,28,19.22,41.73,48.87,48.67,72.34,2.33,7.9.56,16.44-4.69,22.78Z"/>
    <text class="cls-3" transform="translate(87.18 151.57) scale(1.01 1)"><tspan class="cls-5" x="0" y="0">B</tspan><tspan class="cls-4" x="10.81" y="0">r</tspan><tspan class="cls-6" x="17.35" y="0">idging &amp; Simplifying Cloud</tspan></text>
    <path class="cls-1" d="M126.67,80.64c29.68-.12,27.04,44.09-2.9,40.4-17.09-.81-23.54-21.73-13.3-33.91,3.41-4.29,10.01-6.65,15.97-6.49h.23ZM115.52,100.74c-.08,7.07,3.77,12.83,10.93,12.8,7.52-.02,11.25-5.31,11.19-12.89.08-7.36-3.9-12.39-11.19-12.39-6.9-.04-11.04,5.6-10.93,12.47Z"/>
    <path class="cls-1" d="M174.18,80.68c4.71,0,8.98.88,12.8,2.63v8.72c-3.79-2.11-7.37-3.17-10.76-3.17-3.64,0-6.62,1.09-8.93,3.27-2.31,2.18-3.47,5.14-3.47,8.86s1.16,6.58,3.49,8.8c2.33,2.23,5.43,3.34,9.3,3.34,2.89,0,6.59-.92,11.1-2.75v8.3c-4.19,1.64-8.52,2.46-12.97,2.46-6.57,0-11.89-1.81-15.99-5.42s-6.14-8.41-6.14-14.39,2-11.19,6.01-14.97c4-3.78,9.19-5.67,15.55-5.67Z"/>
    <path class="cls-1" d="M212.97,80.68c5.96,0,10.67,1.83,14.14,5.5,3.47,3.67,5.21,8.74,5.21,15.22v1.54h-28.67c.43,3.48,1.78,6.15,4.06,8.03,2.27,1.88,5.39,2.82,9.35,2.82,2.54,0,5-.42,7.35-1.27,2.36-.85,4.79-2.13,7.31-3.86v7.63c-4.74,3.23-10.5,4.84-17.26,4.84-6.39,0-11.61-1.85-15.66-5.55-4.05-3.7-6.07-8.62-6.07-14.76s1.87-10.76,5.62-14.51c3.74-3.75,8.63-5.63,14.64-5.63ZM222.3,96.74c-.29-2.84-1.19-5.05-2.69-6.65-1.5-1.6-3.57-2.4-6.2-2.4s-4.85.76-6.48,2.29c-1.63,1.53-2.67,3.78-3.1,6.76h18.48Z"/>
    <path class="cls-1" d="M260.78,80.68c4.34,0,7.8,1.37,10.39,4.11,2.59,2.74,3.88,6.35,3.88,10.82v24.77h-10.63v-23.73c0-2.53-.63-4.53-1.89-6.01-1.26-1.47-2.97-2.21-5.14-2.21-1.65,0-3.2.47-4.64,1.4-1.45.93-3.04,2.48-4.77,4.65v25.9h-10.67v-38.95h10.67v5.46c1.97-2.22,3.98-3.82,6.05-4.78,2.07-.96,4.32-1.44,6.74-1.44Z"/>
    <path class="cls-1" d="M296.15,71.09h.87v10.34h13.88v7.76h-13.88v17.97c0,1.75.55,3.17,1.65,4.25,1.1,1.08,2.6,1.63,4.51,1.63,2.49,0,5.35-.86,8.59-2.58v8.22c-3.85,1.64-7.46,2.46-10.84,2.46-4.57,0-8.13-1.19-10.69-3.59-2.56-2.39-3.84-5.63-3.84-9.72v-18.64h-6.33v-1.67l16.09-16.43Z"/>
  </g>
</svg>