<svg width="131" height="61" viewBox="0 0 131 61" fill="none" xmlns="http://www.w3.org/2000/svg">
<g clip-path="url(#clip0_218_4588)">
<g clip-path="url(#clip1_218_4588)">
<g clip-path="url(#clip2_218_4588)">
<g clip-path="url(#clip3_218_4588)">
<path d="M27.923 47.2551C23.0915 49.1742 17.7095 49.176 12.8768 47.26C8.04402 45.3439 4.12534 41.6548 1.92146 36.9463C-0.282417 32.2379 -0.605135 26.8656 1.01925 21.9272C2.64364 16.9888 6.09251 12.8571 10.6611 10.3763C15.2298 7.89552 20.5732 7.25297 25.5997 8.57994C30.6262 9.90691 34.9563 13.1032 37.7051 17.5158C40.454 21.9283 41.414 27.224 40.3892 32.3206C39.3644 37.4173 36.432 41.9303 32.1913 44.9374L27.7387 38.6566C30.3787 36.7845 32.2042 33.975 32.8421 30.802C33.4799 27.6291 32.8821 24.3324 31.1707 21.5855C29.4594 18.8386 26.7636 16.8489 23.6344 16.023C20.5052 15.1971 17.1786 15.5973 14.3346 17.1418C11.4906 18.6864 9.34368 21.2587 8.33268 24.3332C7.32168 27.4076 7.52287 30.7521 8.89515 33.6831C10.2674 36.6142 12.7072 38.9106 15.7159 40.1031C18.7246 41.2956 22.0751 41.2941 25.0827 40.099L27.923 47.2551Z" fill="#5020D6"/>
<g filter="url(#filter0_d_218_4588)">
<path d="M26.502 19.2606C29.9318 17.5403 32.9896 23.3221 30.2016 25.1829L14.155 35.2083L14.9717 26.4202L26.502 19.2606Z" fill="#5620EB"/>
</g>
<path d="M53.8295 31.132H56.258L57.9668 33.359L58.7729 34.3495L61.4952 37.9023H58.9716L57.152 35.5313L56.5287 34.6676L53.8295 31.132ZM62.022 28.2572C62.022 30.0034 61.7025 31.5049 61.0647 32.7602C60.4256 34.0126 59.5503 34.9742 58.4375 35.6508C57.3291 36.3217 56.0709 36.6585 54.6601 36.6585C53.245 36.6585 51.9797 36.3217 50.8683 35.6508C49.7599 34.9742 48.8875 34.0097 48.2483 32.753C47.6092 31.4963 47.291 29.9977 47.291 28.2572C47.291 26.5111 47.6092 25.0125 48.2483 23.7615C48.8875 22.5048 49.7599 21.5417 50.8683 20.8709C51.9797 20.1943 53.2436 19.8574 54.6601 19.8574C56.0709 19.8574 57.3305 20.1957 58.4375 20.8709C59.5503 21.5417 60.4256 22.5048 61.0647 23.7615C61.7039 25.0125 62.022 26.5111 62.022 28.2572ZM59.5791 28.2572C59.5791 26.9256 59.3632 25.8057 58.9313 24.8959C58.5066 23.9803 57.9207 23.2879 57.175 22.8186C56.4238 22.3419 55.5497 22.0952 54.6601 22.1089C53.7682 22.0947 52.8916 22.3413 52.138 22.8186C51.3966 23.2879 50.8122 23.9803 50.3818 24.8959C49.9542 25.8057 49.7411 26.9256 49.7411 28.2572C49.7411 29.5874 49.9542 30.7117 50.3803 31.6258C50.8122 32.5371 51.3966 33.2295 52.1366 33.7031C52.8923 34.176 53.7688 34.42 54.6601 34.4056C55.5973 34.4056 56.4351 34.171 57.1765 33.7031C57.9207 33.228 58.5066 32.5371 58.9327 31.6273C59.3646 30.7117 59.5791 29.5874 59.5791 28.2572ZM69.9612 36.6815C68.811 36.6815 67.8076 36.4181 66.9511 35.8898C66.0886 35.358 65.3955 34.5915 64.953 33.6801C64.4779 32.7328 64.2418 31.6258 64.2418 30.359C64.2418 29.0864 64.4794 27.9736 64.953 27.0207C65.3931 26.1054 66.0859 25.3351 66.9496 24.8009C67.8062 24.274 68.8096 24.0105 69.9583 24.0105C71.11 24.0105 72.1119 24.274 72.9699 24.8023C73.8264 25.3277 74.4929 26.0691 74.9666 27.0207C75.4402 27.9736 75.6763 29.0864 75.6763 30.359C75.6763 31.6258 75.4402 32.7328 74.9666 33.6801C74.5249 34.5924 73.8323 35.36 72.9699 35.8927C72.1119 36.4195 71.11 36.683 69.9598 36.683L69.9612 36.6815ZM69.9684 34.6777C70.7141 34.6777 71.3317 34.4805 71.8211 34.086C72.3106 33.6916 72.6733 33.1676 72.908 32.5126C73.147 31.859 73.2679 31.1364 73.2679 30.3489C73.2679 29.5672 73.147 28.8475 72.908 28.1939C72.7008 27.5732 72.3244 27.0228 71.8211 26.6046C71.3317 26.2044 70.7141 26.0058 69.9684 26.0058C69.2184 26.0058 68.5951 26.2044 68.0999 26.6046C67.6104 27.0034 67.2462 27.5331 67.0058 28.1939C66.7654 28.8866 66.6465 29.6157 66.6545 30.3489C66.6545 31.1364 66.7726 31.859 67.0072 32.5126C67.2462 33.1676 67.6118 33.693 68.1013 34.086C68.5951 34.4805 69.2184 34.6762 69.9684 34.6762V34.6777ZM83.3966 36.6815C82.2464 36.6815 81.243 36.4181 80.3865 35.8898C79.5243 35.3575 78.8317 34.5905 78.3898 33.6786C77.9162 32.7314 77.6801 31.6244 77.6801 30.3576C77.6801 29.085 77.9162 27.9722 78.3898 27.0192C78.8298 26.1038 79.5227 25.3336 80.3865 24.7994C81.243 24.2725 82.2464 24.0091 83.3966 24.0091C84.5468 24.0091 85.5502 24.2725 86.4067 24.8009C87.2647 25.3263 87.9298 26.0677 88.4034 27.0192C88.877 27.9722 89.1146 29.085 89.1146 30.3576C89.1146 31.6244 88.877 32.7314 88.4034 33.6786C87.9618 34.591 87.2691 35.3585 86.4067 35.8912C85.5502 36.4181 84.5454 36.6815 83.3966 36.6815ZM83.4053 34.6777C84.1495 34.6777 84.7671 34.4805 85.2565 34.086C85.746 33.6916 86.1088 33.1676 86.3434 32.5126C86.5824 31.859 86.7033 31.1364 86.7033 30.3489C86.7033 29.5672 86.5824 28.8475 86.3434 28.1939C86.1362 27.5732 85.7598 27.0228 85.2565 26.6046C84.7671 26.2044 84.1495 26.0058 83.4053 26.0058C82.6538 26.0058 82.0319 26.2044 81.5367 26.6046C81.0473 27.0034 80.6816 27.5331 80.4426 28.1939C80.2022 28.8866 80.0834 29.6157 80.0914 30.3489C80.0914 31.1364 80.208 31.859 80.4426 32.5126C80.6816 33.1676 81.0473 33.693 81.5367 34.086C82.0319 34.4805 82.6538 34.6762 83.4053 34.6762V34.6777ZM94.0537 29.1512V36.4339H91.6669V24.1689H93.9587V26.1656H94.1098C94.392 25.5163 94.8339 24.9938 95.4342 24.5993C96.0417 24.2063 96.8061 24.0091 97.7275 24.0091C98.5624 24.0091 99.2951 24.1847 99.9228 24.536C100.55 24.8815 101.038 25.3997 101.384 26.0849C101.729 26.7716 101.902 27.621 101.902 28.633V36.4339H99.5168V28.9194C99.5168 28.0312 99.2865 27.3359 98.823 26.8364C98.3594 26.3297 97.7231 26.0777 96.9141 26.0777C96.3599 26.0777 95.8675 26.1972 95.4371 26.4376C95.011 26.6766 94.6741 27.0279 94.4222 27.49C94.1775 27.9477 94.0537 28.502 94.0537 29.1512ZM104.993 36.4339V24.1689H107.38V36.4339H104.993ZM106.198 22.2759C105.783 22.2759 105.426 22.1377 105.128 21.8613C104.989 21.7336 104.877 21.5781 104.802 21.4048C104.726 21.2314 104.688 21.0441 104.689 20.855C104.689 20.4606 104.836 20.1252 105.128 19.8488C105.426 19.5666 105.783 19.4255 106.198 19.4255C106.614 19.4255 106.968 19.5666 107.26 19.8488C107.558 20.1252 107.706 20.4606 107.706 20.855C107.708 21.0448 107.668 21.2327 107.592 21.4061C107.515 21.5796 107.402 21.7348 107.26 21.8613C106.968 22.1377 106.612 22.2759 106.198 22.2759ZM116.204 24.1689V26.0849H109.507V24.1689H116.204ZM111.303 21.2307H113.689V32.8336C113.689 33.2943 113.758 33.6441 113.897 33.8787C114.036 34.1076 114.213 34.2645 114.432 34.3495C114.655 34.4301 114.897 34.4689 115.159 34.4689C115.328 34.4708 115.496 34.4578 115.663 34.4301L115.997 34.3653L116.429 36.3375C115.93 36.5076 115.407 36.5942 114.88 36.5937C114.277 36.6092 113.678 36.4948 113.124 36.2583C112.588 36.0309 112.13 35.6534 111.805 35.1714C111.469 34.682 111.301 34.0673 111.301 33.3288V21.2293L111.303 21.2307ZM120.242 41.0333C119.915 41.0363 119.589 41.0069 119.268 40.9455C119.044 40.9113 118.825 40.8524 118.614 40.7699L119.188 38.8121C119.625 38.9301 120.013 38.9805 120.354 38.9647C120.692 38.9503 121.012 38.8143 121.257 38.5818C121.522 38.3414 121.757 37.9512 121.96 37.4071L122.255 36.5937L117.768 24.1689H120.323L123.428 33.6873H123.557L126.663 24.1689H129.225L124.172 38.0707C123.938 38.7099 123.64 39.2497 123.277 39.6917C122.914 40.1379 122.484 40.4733 121.983 40.6979C121.433 40.9313 120.839 41.0456 120.242 41.0333Z" fill="black"/>
</g>
</g>
</g>
</g>
<defs>
<filter id="filter0_d_218_4588" x="13.2071" y="18.9448" width="19.0292" height="20.143" filterUnits="userSpaceOnUse" color-interpolation-filters="sRGB">
<feFlood flood-opacity="0" result="BackgroundImageFix"/>
<feColorMatrix in="SourceAlpha" type="matrix" values="0 0 0 0 0 0 0 0 0 0 0 0 0 0 0 0 0 0 127 0" result="hardAlpha"/>
<feOffset dy="2.93238"/>
<feGaussianBlur stdDeviation="0.473615"/>
<feComposite in2="hardAlpha" operator="out"/>
<feColorMatrix type="matrix" values="0 0 0 0 0.42 0 0 0 0 0.42 0 0 0 0 0.42 0 0 0 0.25 0"/>
<feBlend mode="normal" in2="BackgroundImageFix" result="effect1_dropShadow_218_4588"/>
<feBlend mode="normal" in="SourceGraphic" in2="effect1_dropShadow_218_4588" result="shape"/>
</filter>
<clipPath id="clip0_218_4588">
<rect width="131" height="60.46" fill="white"/>
</clipPath>
<clipPath id="clip1_218_4588">
<rect width="131" height="60.46" fill="white"/>
</clipPath>
<clipPath id="clip2_218_4588">
<rect width="131" height="60.46" fill="white"/>
</clipPath>
<clipPath id="clip3_218_4588">
<rect width="131" height="46.0659" fill="white" transform="translate(0 7.19214)"/>
</clipPath>
</defs>
</svg>
