<svg width="50" height="49" xmlns="http://www.w3.org/2000/svg" xmlns:xlink="http://www.w3.org/1999/xlink" xml:space="preserve" overflow="hidden"><g transform="translate(-1122 -293)"><g><g><g><g><path d="M1165.83 317 1165.83 319 1152.31 319 1154.95 321.638 1153.54 323.052 1149.19 318.707C1148.8 318.316 1148.8 317.684 1149.19 317.293L1153.54 312.948 1154.95 314.362 1152.31 317 1165.83 317ZM1144.81 318.707 1140.47 323.052 1139.05 321.638 1141.69 319 1128.17 319 1128.17 317 1141.69 317 1139.05 314.362 1140.47 312.948 1144.81 317.293C1145.2 317.684 1145.2 318.316 1144.81 318.707ZM1150.64 330.328 1152.05 331.742 1147.71 336.087C1147.51 336.282 1147.26 336.38 1147 336.38 1146.74 336.38 1146.49 336.282 1146.29 336.087L1141.95 331.742 1143.36 330.328 1146 332.966 1146 303.325 1143.42 306.341 1141.9 305.04 1146.24 299.971C1146.62 299.527 1147.38 299.527 1147.76 299.971L1152.1 305.04 1150.59 306.341 1148 303.325 1148 332.966 1150.64 330.328ZM1147 338C1135.97 338 1127 329.028 1127 318 1127 306.972 1135.97 298 1147 298 1158.03 298 1167 306.972 1167 318 1167 329.028 1158.03 338 1147 338ZM1147 296C1134.87 296 1125 305.869 1125 318 1125 330.131 1134.87 340 1147 340 1159.13 340 1169 330.131 1169 318 1169 305.869 1159.13 296 1147 296Z" fill="#008236" fill-rule="evenodd" fill-opacity="1"/></g></g></g></g></g></svg>