<svg width="48" height="48" xmlns="http://www.w3.org/2000/svg" xmlns:xlink="http://www.w3.org/1999/xlink" xml:space="preserve" overflow="hidden"><g transform="translate(-980 -420)"><g><path d="M1020.35 446.059 1020.58 444.412C1022.34 445.484 1022.89 446.107 1023.05 446.372 1022.58 446.512 1021.63 446.385 1020.35 446.059ZM1002.73 440.038C1002.73 439.989 1002.77 439.948 1002.82 439.948 1002.83 439.948 1002.84 439.957 1002.85 439.963L1002.78 440.103C1002.75 440.094 1002.73 440.076 1002.73 440.038ZM1016.37 460.637C1016.37 460.682 1016.36 460.726 1016.36 460.771 1016.36 460.923 1015.99 461.507 1014.31 462.17 1013.56 462.465 1012.68 462.731 1011.68 462.959 1009.12 463.553 1005.97 463.88 1002.82 463.88 994.388 463.88 989.271 461.721 989.271 460.771 989.271 460.726 989.268 460.682 989.262 460.637L985.44 432.253C985.685 432.396 985.95 432.533 986.226 432.666 986.295 432.7 986.372 432.732 986.444 432.765 986.692 432.879 986.95 432.99 987.218 433.097 987.326 433.14 987.435 433.182 987.545 433.224 987.826 433.33 988.116 433.431 988.416 433.529 988.496 433.555 988.573 433.583 988.655 433.609 989.037 433.729 989.432 433.843 989.84 433.952 989.943 433.979 990.05 434.004 990.156 434.031 990.476 434.113 990.804 434.191 991.139 434.265 991.272 434.295 991.404 434.324 991.539 434.353 991.911 434.431 992.289 434.505 992.673 434.576 992.75 434.589 992.823 434.605 992.9 434.618 993.36 434.699 993.83 434.773 994.306 434.842 994.434 434.861 994.564 434.877 994.693 434.895 995.059 434.945 995.427 434.992 995.8 435.035 995.947 435.052 996.093 435.069 996.24 435.085 996.685 435.133 997.133 435.176 997.585 435.214 997.638 435.219 997.69 435.224 997.743 435.229 998.245 435.27 998.751 435.303 999.259 435.331 999.401 435.339 999.542 435.346 999.685 435.353 1000.07 435.372 1000.45 435.388 1000.84 435.4 1000.99 435.405 1001.14 435.41 1001.29 435.413 1001.8 435.425 1002.31 435.434 1002.82 435.434 1003.32 435.434 1003.83 435.425 1004.34 435.413 1004.49 435.41 1004.64 435.405 1004.79 435.4 1005.18 435.388 1005.56 435.372 1005.95 435.353 1006.09 435.346 1006.23 435.339 1006.37 435.331 1006.88 435.303 1007.39 435.27 1007.89 435.229 1007.94 435.224 1007.99 435.219 1008.04 435.215 1008.5 435.177 1008.95 435.133 1009.39 435.084 1009.54 435.069 1009.68 435.052 1009.83 435.036 1010.21 434.992 1010.58 434.945 1010.95 434.894 1011.07 434.876 1011.2 434.861 1011.33 434.842 1011.8 434.773 1012.28 434.699 1012.74 434.618 1012.81 434.605 1012.88 434.59 1012.95 434.578 1013.34 434.506 1013.72 434.431 1014.1 434.352 1014.23 434.324 1014.36 434.295 1014.49 434.266 1014.83 434.191 1015.16 434.112 1015.49 434.029 1015.59 434.003 1015.69 433.979 1015.79 433.952 1016.2 433.843 1016.6 433.729 1016.98 433.608 1017.06 433.583 1017.13 433.557 1017.21 433.532 1017.51 433.432 1017.81 433.33 1018.09 433.222 1018.2 433.182 1018.31 433.14 1018.41 433.099 1018.68 432.991 1018.95 432.878 1019.2 432.762 1019.27 432.73 1019.34 432.7 1019.41 432.667 1019.68 432.534 1019.95 432.396 1020.2 432.253L1018.41 445.49C1014.79 444.328 1009.71 442.221 1004.9 439.933 1004.84 438.83 1003.93 437.948 1002.82 437.948 1001.66 437.948 1000.73 438.885 1000.73 440.038 1000.73 441.192 1001.66 442.129 1002.82 442.129 1003.27 442.129 1003.69 441.982 1004.03 441.737 1008.34 443.805 1013.84 446.246 1018.14 447.487L1016.37 460.637ZM1002.82 424C1013.19 424 1020.5 427.212 1020.63 428.995L1020.61 429.202C1020.59 429.263 1020.55 429.327 1020.52 429.39 1020.49 429.441 1020.47 429.492 1020.43 429.543 1020.39 429.607 1020.32 429.671 1020.26 429.736 1020.21 429.788 1020.17 429.841 1020.11 429.894 1020.04 429.959 1019.95 430.024 1019.87 430.089 1019.8 430.144 1019.73 430.198 1019.65 430.252 1019.56 430.317 1019.44 430.382 1019.33 430.447 1019.24 430.502 1019.16 430.558 1019.05 430.613 1018.94 430.676 1018.8 430.74 1018.67 430.802 1018.55 430.859 1018.45 430.915 1018.32 430.971 1018.18 431.033 1018.03 431.093 1017.88 431.155 1017.74 431.21 1017.61 431.267 1017.46 431.322 1017.3 431.382 1017.12 431.441 1016.95 431.499 1016.79 431.553 1016.64 431.609 1016.48 431.662 1016.3 431.718 1016.1 431.773 1015.91 431.829 1015.73 431.88 1015.56 431.934 1015.38 431.984 1015.18 432.038 1014.96 432.087 1014.76 432.138 1014.56 432.188 1014.36 432.24 1014.16 432.287 1013.94 432.335 1013.71 432.381 1013.48 432.427 1013.27 432.473 1013.06 432.52 1012.83 432.563 1012.59 432.609 1012.33 432.65 1012.08 432.693 1011.85 432.732 1011.63 432.774 1011.4 432.81 1011.13 432.851 1010.85 432.886 1010.58 432.924 1010.34 432.956 1010.11 432.993 1009.86 433.022 1009.58 433.057 1009.28 433.085 1008.98 433.117 1008.73 433.143 1008.49 433.172 1008.23 433.196 1007.91 433.225 1007.57 433.246 1007.24 433.271 1006.99 433.288 1006.76 433.31 1006.51 433.325 1006.13 433.348 1005.74 433.362 1005.35 433.377 1005.13 433.386 1004.92 433.4 1004.71 433.406 1004.09 433.424 1003.46 433.434 1002.82 433.434 1002.17 433.434 1001.54 433.424 1000.93 433.406 1000.72 433.4 1000.51 433.386 1000.31 433.378 999.907 433.363 999.504 433.348 999.118 433.325 998.882 433.311 998.661 433.29 998.431 433.274 998.084 433.248 997.733 433.226 997.397 433.196 997.156 433.173 996.928 433.146 996.693 433.121 996.383 433.088 996.067 433.059 995.767 433.022 995.538 432.995 995.323 432.96 995.099 432.93 994.808 432.89 994.512 432.853 994.233 432.81 994.013 432.776 993.808 432.737 993.595 432.701 993.33 432.655 993.057 432.612 992.801 432.563 992.587 432.522 992.389 432.477 992.183 432.435 991.946 432.385 991.702 432.338 991.475 432.287 991.278 432.242 991.096 432.193 990.907 432.146 990.688 432.092 990.463 432.039 990.256 431.984 990.079 431.936 989.917 431.884 989.747 431.835 989.547 431.777 989.341 431.72 989.154 431.661 988.994 431.61 988.85 431.557 988.699 431.505 988.521 431.444 988.336 431.383 988.17 431.322 988.029 431.268 987.905 431.214 987.772 431.161 987.617 431.097 987.454 431.035 987.311 430.97 987.189 430.916 987.084 430.861 986.971 430.806 986.838 430.742 986.699 430.677 986.58 430.613 986.478 430.558 986.395 430.503 986.303 430.449 986.193 430.383 986.077 430.318 985.98 430.252 985.901 430.198 985.838 430.144 985.768 430.09 985.683 430.025 985.591 429.959 985.52 429.894 985.461 429.841 985.42 429.788 985.372 429.736 985.312 429.671 985.247 429.607 985.202 429.543 985.165 429.492 985.146 429.441 985.12 429.39 985.086 429.327 985.046 429.263 985.029 429.202L985.002 428.995C985.139 427.212 992.446 424 1002.82 424ZM1025.08 446.158C1024.87 445.013 1023.55 443.8 1020.86 442.263L1022.58 429.567 1022.58 429.564 1022.58 429.563 1022.62 429.175C1022.63 429.132 1022.63 429.088 1022.63 429.045 1022.63 424.894 1012.19 422 1002.82 422 993.444 422 983 424.894 983 429.045 983 429.088 983.003 429.132 983.009 429.175L983.06 429.563 983.06 429.564 983.06 429.567 987.272 460.848C987.404 464.512 996.848 465.88 1002.82 465.88 1006.11 465.88 1009.42 465.536 1012.13 464.909 1013.22 464.658 1014.2 464.362 1015.04 464.03 1017.2 463.176 1018.32 462.106 1018.36 460.848L1020.09 447.979C1021.04 448.179 1021.9 448.301 1022.62 448.301 1023.58 448.301 1024.31 448.097 1024.7 447.63 1025.05 447.215 1025.18 446.692 1025.08 446.158ZM992.654 446.43 995.25 442.103 997.846 446.43 992.654 446.43ZM1000.48 447.922C1000.66 447.609 1000.66 447.224 1000.47 446.915L996.107 439.645C995.746 439.043 994.753 439.043 994.392 439.645L990.03 446.915C989.844 447.225 989.839 447.609 990.017 447.923 990.195 448.237 990.527 448.43 990.887 448.43L999.613 448.43C999.973 448.43 1000.3 448.237 1000.48 447.922ZM1009.65 449.302C1011.26 449.302 1012.57 450.625 1012.57 452.252 1012.57 453.878 1011.26 455.202 1009.65 455.202 1008.03 455.202 1006.72 453.878 1006.72 452.252 1006.72 450.625 1008.03 449.302 1009.65 449.302ZM1009.65 457.202C1012.36 457.202 1014.57 454.982 1014.57 452.252 1014.57 449.523 1012.36 447.302 1009.65 447.302 1006.93 447.302 1004.72 449.523 1004.72 452.252 1004.72 454.982 1006.93 457.202 1009.65 457.202ZM994.599 458.645 999.496 458.645 999.496 453.666 994.599 453.666 994.599 458.645ZM1000.5 451.665 993.598 451.665C993.045 451.665 992.598 452.113 992.598 452.665L992.598 459.645C992.598 460.198 993.045 460.645 993.598 460.645L1000.5 460.645C1001.05 460.645 1001.5 460.198 1001.5 459.645L1001.5 452.665C1001.5 452.113 1001.05 451.665 1000.5 451.665Z" fill="#7AA116" fill-rule="evenodd" fill-opacity="1"/></g></g></svg>